<svg xmlns="http://www.w3.org/2000/svg" viewBox="0 0 256 256" role="img" aria-label="FBG house favicon">
  <defs>
    <linearGradient id="bg" x1="0" y1="0" x2="1" y2="1">
      <stop offset="0" stop-color="#2f7cff"/>
      <stop offset="1" stop-color="#0e4bcf"/>
    </linearGradient>
    <linearGradient id="roof" x1="0" y1="0" x2="0" y2="1">
      <stop offset="0" stop-color="#ff6767"/>
      <stop offset="1" stop-color="#d81f35"/>
    </linearGradient>
    <filter id="shadow" x="-20%" y="-20%" width="140%" height="140%">
      <feDropShadow dx="0" dy="10" stdDeviation="10" flood-color="#0a2f87" flood-opacity="0.28"/>
    </filter>
  </defs>

  <rect x="18" y="18" width="220" height="220" rx="56" fill="url(#bg)"/>
  <rect x="18" y="18" width="220" height="220" rx="56" fill="none" stroke="#9cc1ff" stroke-width="4" opacity="0.55"/>

  <g opacity="0.2">
    <circle cx="196" cy="64" r="28" fill="#ffffff"/>
    <path d="M36 184 C70 156, 112 154, 146 174 C168 188, 198 190, 220 174 L220 220 L36 220 Z" fill="#ffffff"/>
  </g>

  <g filter="url(#shadow)">
    <path d="M128 62 70 111h17v70h82v-70h17z" fill="#ffffff"/>
    <path d="M128 49 56 109h24l48-40 48 40h24z" fill="url(#roof)"/>
    <rect x="118" y="132" width="20" height="49" rx="8" fill="#2f7cff"/>
    <rect x="95" y="117" width="18" height="21" rx="4" fill="#2f7cff"/>
    <rect x="143" y="117" width="18" height="21" rx="4" fill="#2f7cff"/>
  </g>

  <text x="128" y="218" text-anchor="middle" font-family="Arial Black, Arial, sans-serif" font-size="42" font-weight="900" fill="#ffffff" letter-spacing="2">FBG</text>
</svg>