<?xml version="1.0" standalone="no"?>
<!DOCTYPE svg PUBLIC "-//W3C//DTD SVG 20010904//EN"
 "http://www.w3.org/TR/2001/REC-SVG-20010904/DTD/svg10.dtd">
<svg version="1.0" xmlns="http://www.w3.org/2000/svg"
 width="512.000000pt" height="512.000000pt" viewBox="0 0 512.000000 512.000000"
 preserveAspectRatio="xMidYMid meet">
<g transform="translate(0.000000,512.000000) scale(0.100000,-0.100000)"
fill="#000000" stroke="none">
<path d="M2005 4844 c-54 -7 -150 -26 -157 -30 -4 -3 33 -39 83 -81 183 -153
325 -357 332 -474 2 -37 3 -38 17 -21 8 10 18 19 23 20 4 1 28 14 54 29 59 35
128 36 193 5 25 -13 92 -57 150 -98 119 -87 221 -139 297 -153 53 -10 142 -4
276 19 37 7 99 10 138 8 86 -5 106 -22 152 -132 30 -74 46 -93 56 -65 2 7 -1
9 -9 4 -9 -6 -11 -4 -6 4 5 7 10 10 13 7 3 -3 31 17 62 45 107 96 345 190 546
214 l60 8 -61 56 c-34 31 -95 75 -135 98 -313 178 -690 131 -1049 -130 l-74
-54 -66 131 c-72 145 -106 197 -190 295 -110 129 -285 237 -440 274 -68 16
-214 28 -265 21z"/>
<path d="M1585 4345 c-242 -45 -442 -201 -564 -442 -17 -33 -31 -65 -31 -70 0
-6 44 1 98 15 87 22 117 25 292 26 225 0 321 -15 520 -85 63 -23 123 -41 132
-42 9 -1 15 -4 13 -7 -2 -3 14 -13 36 -22 21 -9 39 -12 39 -7 0 5 -4 9 -9 9
-5 0 -8 8 -6 18 3 20 -17 61 -79 162 -73 118 -63 144 86 229 116 65 143 85
134 99 -8 14 -153 68 -246 92 -152 40 -291 48 -415 25z"/>
<path d="M3613 3845 c-3 -10 17 -49 50 -99 69 -104 97 -158 97 -189 0 -34 -31
-69 -116 -133 -127 -93 -126 -89 -25 -103 323 -45 631 -184 828 -374 40 -39
76 -67 80 -63 5 4 8 67 7 139 0 158 -17 232 -79 362 -118 244 -354 398 -706
460 -106 19 -128 19 -136 0z"/>
<path d="M1930 3633 c-81 -9 -231 -44 -309 -72 -415 -152 -582 -553 -457
-1101 13 -58 30 -118 36 -135 l12 -30 22 29 c135 186 189 250 301 362 244 244
472 381 752 451 93 23 129 27 259 27 l150 1 87 -43 c347 -172 611 -550 722
-1031 25 -111 55 -318 55 -383 0 -22 5 -38 12 -38 6 0 47 37 91 82 271 281
401 594 354 854 -29 161 -90 274 -224 414 -108 113 -270 235 -291 218 -9 -8
-11 -7 -7 5 4 8 1 18 -6 23 -9 5 -10 2 -6 -9 4 -10 1 -17 -6 -17 -7 0 -8 -3
-2 -8 15 -11 17 -32 2 -29 -13 2 -14 -27 -6 -178 4 -76 3 -80 -16 -77 -11 2
-56 30 -100 62 -275 198 -458 289 -650 321 -77 13 -429 7 -620 -10 -230 -21
-221 -22 -215 18 1 8 40 53 86 101 96 99 136 149 128 161 -3 5 0 9 5 9 6 0 11
7 11 15 0 12 -13 15 -67 13 -38 0 -84 -3 -103 -5z"/>
<path d="M2455 2903 c-16 -2 -62 -10 -101 -19 l-71 -15 -72 -110 c-161 -247
-339 -583 -457 -866 -113 -271 -230 -648 -283 -914 l-12 -55 -127 -17 c-164
-21 -282 -55 -407 -116 -204 -101 -320 -257 -341 -456 l-6 -60 1071 0 1071 0
0 40 c0 23 -7 67 -15 99 -63 243 -268 400 -614 472 -62 12 -115 25 -117 27 -9
9 59 373 101 543 119 480 290 899 531 1301 41 68 74 125 74 127 0 20 -130 31
-225 19z m-624 -2034 c53 -41 148 -170 161 -216 16 -57 -2 -84 -74 -113 -55
-22 -74 -24 -212 -23 -115 1 -162 5 -196 18 -25 9 -55 19 -67 22 -12 3 -25 14
-28 24 -4 10 -11 19 -16 19 -5 0 -1 17 10 38 26 50 160 183 235 233 53 36 67
40 103 36 27 -3 56 -16 84 -38z"/>
</g>
</svg>
