<?xml version="1.0" standalone="no"?>
<!DOCTYPE svg PUBLIC "-//W3C//DTD SVG 20010904//EN"
 "http://www.w3.org/TR/2001/REC-SVG-20010904/DTD/svg10.dtd">
<svg version="1.0" xmlns="http://www.w3.org/2000/svg"
 width="512.000000pt" height="512.000000pt" viewBox="0 0 512.000000 512.000000"
 preserveAspectRatio="xMidYMid meet">
<g transform="translate(0.000000,512.000000) scale(0.100000,-0.100000)"
fill="#000000" stroke="none">
<path d="M1830 5075 c-881 -263 -1585 -1029 -1770 -1930 -71 -343 -68 -782 6
-1114 288 -1293 1530 -2165 2845 -1996 1063 136 1922 888 2184 1912 36 141 18
204 -69 244 -78 35 -127 21 -246 -70 -521 -402 -1192 -514 -1809 -300 -946
328 -1482 1331 -1231 2303 69 267 144 420 345 704 88 124 39 252 -105 276 -24
4 -71 -5 -150 -29z m-190 -420 c0 -8 -19 -61 -41 -117 -78 -195 -119 -325
-154 -496 -25 -119 -21 -699 4 -823 108 -521 439 -1048 858 -1366 666 -508
1500 -590 2232 -221 85 43 159 74 163 70 17 -17 -45 -166 -126 -302 -288 -486
-709 -803 -1352 -1019 -543 -182 -650 -194 -934 -109 -760 230 -1116 426
-1445 795 -276 308 -406 566 -597 1183 -18 58 -56 152 -85 208 -60 118 -63
142 -28 213 51 99 114 266 144 380 192 717 595 1239 1203 1555 126 65 158 75
158 49z m-1600 -2090 c0 -3 -2 -5 -5 -5 -3 0 -5 2 -5 5 0 3 2 5 5 5 3 0 5 -2
5 -5z m30 0 c0 -3 -2 -5 -5 -5 -3 0 -5 2 -5 5 0 3 2 5 5 5 3 0 5 -2 5 -5z"/>
</g>
</svg>
