<?xml version="1.0" encoding="UTF-8"?>
<svg xmlns="http://www.w3.org/2000/svg" viewBox="0 0 500 500" preserveAspectRatio="xMidYMid meet">
<path d="M0 0 C5.12837426 0.61706424 7.7349258 2.71978562 11.67578125 5.90234375 C12.72789795 6.72279175 12.72789795 6.72279175 13.80126953 7.55981445 C19.38036064 11.95513111 24.67211881 16.6197588 29.86328125 21.46484375 C31.50896595 22.90251391 33.15480253 24.34001022 34.80078125 25.77734375 C46.54469684 36.38000109 56.39242931 48.51575934 64.61328125 62.02734375 C65.14236084 62.8922644 65.14236084 62.8922644 65.68212891 63.7746582 C87.15209288 100.01970532 89.47708714 141.0306935 81.2734375 181.31640625 C78.17746888 196.54466489 76.79979298 210.29670574 84.98828125 224.08984375 C91.15051811 233.23630852 99.18301733 239.50824731 109.65234375 243.07421875 C122.89292205 245.41354354 134.54638055 243.26167898 145.67578125 235.77734375 C154.61743419 228.87367438 159.75556827 219.34915378 161.328125 208.15625 C161.73361671 203.35145102 161.89682213 198.59684952 161.80078125 193.77734375 C161.86328125 190.46484375 161.86328125 190.46484375 163.86328125 188.46484375 C166.26171875 188.09375 166.26171875 188.09375 168.86328125 188.46484375 C172.11381971 191.25591791 174.42269464 194.96020559 176.86328125 198.46484375 C177.50257568 199.37363281 177.50257568 199.37363281 178.15478516 200.30078125 C208.44704693 243.85342323 218.30304339 300.59377178 209.86328125 352.46484375 C207.45623591 364.80040307 203.36395326 376.75200538 198.86328125 388.46484375 C198.40179688 389.66753906 197.9403125 390.87023437 197.46484375 392.109375 C189.48682006 411.74589187 176.69766395 428.66021975 162.19921875 443.96875 C160.35921954 445.934903 158.69822809 447.90563191 157.05078125 450.02734375 C152.2304246 455.71785075 145.79975746 460.01092928 139.86328125 464.46484375 C139.29544922 464.89732422 138.72761719 465.32980469 138.14257812 465.77539062 C117.23245481 481.64751932 93.40958732 492.50355157 67.86328125 498.46484375 C67.05358887 498.66062012 66.24389648 498.85639648 65.40966797 499.05810547 C55.44173921 501.09753751 45.25076783 500.83697309 35.12158203 500.83544922 C31.89821479 500.83979663 28.67624884 500.87613181 25.453125 500.9140625 C7.73039308 501.01202513 -8.61102743 498.53380547 -25.38671875 492.71484375 C-26.39484619 492.37050293 -27.40297363 492.02616211 -28.44165039 491.67138672 C-37.091863 488.63445569 -45.15421995 484.95247705 -53.13671875 480.46484375 C-53.83345703 480.08070313 -54.53019531 479.6965625 -55.24804688 479.30078125 C-69.24452931 471.54580439 -81.50390824 462.48349966 -93.13671875 451.46484375 C-94.07 450.59601563 -95.00328125 449.7271875 -95.96484375 448.83203125 C-129.76799529 416.69169569 -147.6772849 371.28063667 -149.32421875 325.04296875 C-150.08605861 289.61149422 -142.59794688 252.47482566 -125.13671875 221.46484375 C-124.59789063 220.46453125 -124.0590625 219.46421875 -123.50390625 218.43359375 C-115.56996742 204.17550079 -105.42327379 191.09198454 -95.13671875 178.46484375 C-94.49814941 177.67762939 -94.49814941 177.67762939 -93.84667969 176.87451172 C-86.34661061 167.67820277 -78.2285534 159.09504217 -70.05859375 150.49560547 C-65.36417417 145.53521649 -60.74877512 140.50169479 -56.13671875 135.46484375 C-55.3375 134.59472656 -54.53828125 133.72460938 -53.71484375 132.828125 C-48.29910182 126.88014636 -43.18528238 120.72578646 -38.13671875 114.46484375 C-37.47929687 113.6759375 -36.821875 112.88703125 -36.14453125 112.07421875 C-30.67304653 105.43812082 -25.90932005 98.4070057 -21.25146484 91.18798828 C-20.29437343 89.70854212 -19.32066271 88.23987075 -18.34375 86.7734375 C-3.79670872 64.07406974 -0.85303063 34.35242749 -4.60058594 8.22753906 C-4.85695001 6.31545489 -5.00615445 4.38961422 -5.13671875 2.46484375 C-3.13671875 0.46484375 -3.13671875 0.46484375 0 0 Z M2.30078125 252.27734375 C1.42550781 253.09976563 0.55023438 253.9221875 -0.3515625 254.76953125 C-1.27066406 255.65898437 -2.18976563 256.5484375 -3.13671875 257.46484375 C-4.06613281 258.35429687 -4.99554688 259.24375 -5.953125 260.16015625 C-11.86238689 265.92969984 -17.10221165 271.93129802 -22.13671875 278.46484375 C-22.9961409 279.52551447 -23.85827897 280.58398849 -24.72265625 281.640625 C-48.58226483 310.99233385 -59.59681685 344.46444512 -57.13671875 382.46484375 C-56.35711778 388.28892158 -54.81692302 393.84569908 -53.13671875 399.46484375 C-52.89824219 400.42519531 -52.65976563 401.38554687 -52.4140625 402.375 C-47.19643457 422.58940282 -29.46042983 439.949754 -12.13671875 450.46484375 C8.33669885 461.57482629 34.07655596 463.93183775 56.6796875 458.44140625 C81.21228598 450.91606929 100.50506747 433.68818263 112.86328125 411.46484375 C114.19901251 408.50887529 115.06721207 405.60348592 115.86328125 402.46484375 C116.5714627 400.06896552 117.27980778 397.67313565 117.98828125 395.27734375 C123.81090598 375.16897694 120.56180241 356.12730865 114.86328125 336.46484375 C110.79118797 337.01162659 108.47647385 338.22392636 105.23828125 340.71484375 C92.2949571 350.09490158 77.78745359 353.7100743 61.92578125 351.83984375 C49.82761034 349.81459928 40.27855708 345.27300326 30.86328125 337.46484375 C30.21746094 336.95566406 29.57164062 336.44648438 28.90625 335.921875 C16.71572589 325.217329 12.12725237 306.96258064 10.86328125 291.46484375 C10.74240161 288.03518991 10.74581718 284.61111779 10.765625 281.1796875 C10.76703995 280.2379921 10.7684549 279.29629669 10.76991272 278.32606506 C10.77546003 275.35145743 10.78800238 272.3769282 10.80078125 269.40234375 C10.80580307 267.37174589 10.81036478 265.34114683 10.81445312 263.31054688 C10.82541213 258.36194947 10.84263973 253.41340985 10.86328125 248.46484375 C6.11375934 248.46484375 5.63854179 249.13753935 2.30078125 252.27734375 Z" fill="#000000" transform="translate(218.13671875 -0.46484375)"/>
</svg>
