<?xml version="1.0" encoding="UTF-8"?>
<svg version="1.1" xmlns="http://www.w3.org/2000/svg" width="700" height="581">
<path d="M0 0 C0.73916153 -0.00988449 1.47832306 -0.01976898 2.23988342 -0.029953 C25.22913342 -0.27336771 46.44256156 1.7779066 68.75 7.703125 C69.38634684 7.87210234 70.02269367 8.04107967 70.67832375 8.21517754 C86.76801625 12.5163892 102.48093344 17.89710438 118.2265625 23.30078125 C169.10471444 40.76005171 220.21648966 54.44943232 273.9699707 41.9152832 C287.59469388 38.78693738 287.59469388 38.78693738 292.0390625 41.42578125 C293.47195763 44.02290367 293.45646733 45.2637653 293.0390625 48.23828125 C291.48198724 50.99890228 289.55997547 53.43958362 287.6015625 55.92578125 C287.05532227 56.63549072 286.50908203 57.3452002 285.94628906 58.07641602 C282.19404348 62.90175114 278.2808048 67.54126172 274.109375 72.01171875 C272.05564923 74.22044269 270.11548693 76.50173465 268.1640625 78.80078125 C263.61673539 83.91427755 258.43461043 88.05472379 253.0390625 92.23828125 C252.15863281 92.94597656 251.27820313 93.65367187 250.37109375 94.3828125 C216.82513275 120.64234473 175.69523526 132.05429808 135.48294067 143.76983643 C73.81393239 161.75334913 8.45217525 184.08152895 -34.23046875 235.1953125 C-36.35402291 237.70235274 -38.59653687 240.08426925 -40.8359375 242.48828125 C-51.35204868 254.04966854 -60.29784449 267.24364174 -68.9609375 280.23828125 C-69.6209375 280.23828125 -70.2809375 280.23828125 -70.9609375 280.23828125 C-71.39715326 278.61555863 -71.83336899 276.99283601 -72.26958466 275.37011337 C-72.67236552 273.87176887 -73.0751467 272.37342445 -73.47792816 270.87508011 C-74.66107908 266.47376447 -75.84422372 262.07244715 -77.02735901 257.67112732 C-79.49382307 248.49578833 -81.96033394 239.32046194 -84.42703056 230.14518547 C-85.87455925 224.76086046 -87.32205367 219.37652625 -88.76953125 213.9921875 C-89.06388943 212.89723339 -89.3582476 211.80227928 -89.66152573 210.67414474 C-93.78361447 195.34054211 -97.90403507 180.00649214 -102.02316475 164.67209435 C-103.69620835 158.44408371 -105.36958411 152.2161623 -107.04297161 145.98824406 C-108.62539101 140.09873564 -110.20728627 134.20908679 -111.788764 128.31932545 C-112.78220703 124.62011744 -113.7762419 120.92106861 -114.77035332 117.22204018 C-115.48118977 114.57609313 -116.19117624 111.92991896 -116.90113831 109.28373718 C-119.12897142 100.98849657 -121.37880399 92.70020805 -123.67578125 84.42382812 C-124.10353987 82.87723557 -124.53123515 81.33062549 -124.9588623 79.78399658 C-125.74769259 76.93163622 -126.54470042 74.08174622 -127.34680176 71.23309326 C-127.69319702 69.98215881 -128.03959229 68.73122437 -128.39648438 67.44238281 C-128.70034058 66.35814026 -129.00419678 65.27389771 -129.31726074 64.15679932 C-129.92997584 61.37866563 -130.20338725 59.06855627 -129.9609375 56.23828125 C-128.48657227 54.56005859 -128.48657227 54.56005859 -126.40234375 53.07421875 C-125.63269287 52.51508789 -124.86304199 51.95595703 -124.07006836 51.37988281 C-123.22968018 50.7969043 -122.38929199 50.21392578 -121.5234375 49.61328125 C-120.66177979 48.99936523 -119.80012207 48.38544922 -118.91235352 47.75292969 C-116.27766935 45.89065133 -113.62471801 44.0586484 -110.9609375 42.23828125 C-110.2090918 41.72362305 -109.45724609 41.20896484 -108.68261719 40.67871094 C-98.15289446 33.53852859 -87.22937293 27.13852439 -75.9609375 21.23828125 C-75.2812793 20.88137207 -74.60162109 20.52446289 -73.90136719 20.15673828 C-51.47090105 8.56021997 -25.41057812 0.2813048 0 0 Z " fill="#000000" transform="translate(302.9609375,47.76171875)"/>
<path d="M0 0 C7.34692247 8.22155609 9.12252596 20.5059751 11.859375 30.90625 C12.36966409 32.82271183 12.88065301 34.73898743 13.39228821 36.65509033 C14.48719656 40.76093465 15.57756305 44.86794736 16.66433716 48.97595215 C18.39816179 55.52927648 20.14230163 62.07982695 21.88842773 68.62988281 C23.69375764 75.40332138 25.4987537 82.17684588 27.30052185 88.95123291 C32.56313355 108.7350086 37.88275835 128.50311119 43.22277832 148.26611328 C45.693793 157.41116153 48.16126348 166.55716644 50.62890625 175.703125 C50.8743858 176.61285568 51.11986534 177.52258636 51.37278366 178.45988464 C57.30582681 200.44821981 63.21562932 222.4427935 69.125 244.4375 C77.2760532 274.77505649 85.44193158 305.10856345 93.625 335.4375 C102.95930906 370.03330611 112.27099751 404.63515391 121.56984901 439.24050713 C122.08089728 441.14235349 122.59196346 443.04419504 123.10304832 444.94603157 C124.31283409 449.44800406 125.52226732 453.95007059 126.73086548 458.45236206 C128.77505959 466.06589323 130.82322426 473.67824633 132.89013672 481.28564453 C133.2244017 482.51831558 133.55866669 483.75098663 133.90306091 485.02101135 C134.50626251 487.24355176 135.11146206 489.46555138 135.71913147 491.68687439 C135.97544846 492.63204422 136.23176544 493.57721405 136.49584961 494.55102539 C136.71631454 495.35891006 136.93677948 496.16679474 137.16392517 496.99916077 C137.625 498.9375 137.625 498.9375 137.625 500.9375 C124.755 500.9375 111.885 500.9375 98.625 500.9375 C97.243125 495.76191406 95.86125 490.58632813 94.4375 485.25390625 C84.25081185 447.11611671 74.03683251 408.98590973 63.75 370.875 C63.50410126 369.96398151 63.25820251 369.05296303 63.00485229 368.11433792 C62.5049204 366.26218295 62.00498524 364.41002885 61.50504684 362.55787563 C60.24548544 357.89146632 58.98599365 353.22503822 57.7265625 348.55859375 C57.35138111 347.16851829 57.35138111 347.16851829 56.9686203 345.75036049 C51.26724882 324.6248233 45.58795072 303.49336597 39.91054535 282.36137772 C31.00880085 249.22820165 22.08957228 216.09979921 13.15136719 182.97644043 C7.37096548 161.55500288 1.59924893 140.13126821 -4.15625 118.703125 C-4.7256643 116.5834139 -5.29508161 114.46370361 -5.86450195 112.34399414 C-8.32346645 103.18978992 -10.78186007 94.03543381 -13.237854 84.88043213 C-14.23913427 81.1487066 -15.24111338 77.41716901 -16.24334717 73.68569946 C-16.72360991 71.89725113 -17.20363446 70.10873883 -17.68341064 68.32015991 C-20.02948725 59.57603475 -22.38974958 50.83694685 -24.83203125 42.11914062 C-25.11705883 41.09905096 -25.11705883 41.09905096 -25.40784454 40.05835342 C-26.27377726 36.9610251 -27.14549766 33.86559042 -28.02868652 30.77313232 C-30.65366506 21.43098382 -32.5909754 14.04888485 -28.375 4.9375 C-25.27943014 0.02728574 -21.59143472 -2.22939068 -15.9921875 -3.6796875 C-10.19352863 -4.52784954 -4.93745872 -3.01733588 0 0 Z " fill="#000000" transform="translate(128.375,51.0625)"/>
</svg>
