<?xml version="1.0" encoding="UTF-8"?>
<svg version="1.1" xmlns="http://www.w3.org/2000/svg" width="512" height="512">
<path d="M0 0 C1.35180272 -0.00445668 1.35180272 -0.00445668 2.73091459 -0.0090034 C5.76930876 -0.01771743 8.80766364 -0.01920095 11.84606934 -0.02069092 C14.01730433 -0.02531734 16.18853851 -0.03034176 18.35977173 -0.03573608 C24.27335897 -0.04888283 30.18693485 -0.05530998 36.10053444 -0.05974674 C39.79488402 -0.06267504 43.48923048 -0.06677948 47.18357849 -0.07125092 C58.74117026 -0.08493456 70.29875492 -0.09459581 81.85635424 -0.09845281 C83.17392702 -0.0988949 84.4914998 -0.09933699 85.84899902 -0.09979248 C86.5091614 -0.10001391 87.16932377 -0.10023534 87.84949106 -0.10046348 C99.19425638 -0.10465076 110.53893326 -0.12479835 121.88367319 -0.1494534 C132.19376539 -0.1710817 142.50382875 -0.18115778 152.81394339 -0.18249393 C158.97238194 -0.18354153 165.13072412 -0.18943951 171.28913879 -0.20731354 C177.08720808 -0.22381297 182.88510878 -0.22594052 188.68319321 -0.21717453 C190.80757474 -0.21640505 192.93196539 -0.22073514 195.05632401 -0.23063278 C197.96499458 -0.24338589 200.87307113 -0.237457 203.78173828 -0.22705078 C204.61503615 -0.23510719 205.44833402 -0.24316359 206.30688334 -0.25146413 C218.01923668 -0.15401025 228.34633046 4.41492983 237.08630371 12.14044189 C245.35222424 21.09030383 248.25724419 31.91239032 249.89099121 43.62091064 C250.28665228 47.09983701 250.28665228 47.09983701 251.39880371 50.14044189 C255.25335209 51.42529135 258.88311873 51.27343696 262.89920044 51.25828552 C264.21659118 51.2593424 264.21659118 51.2593424 265.56059587 51.26042062 C268.51531089 51.2617332 271.46997302 51.25604704 274.42468262 51.25054932 C276.53857422 51.25030726 278.65246594 51.25058416 280.76635742 51.25134277 C285.32531723 51.25245041 289.88426699 51.25101258 294.44322586 51.2479763 C301.65421909 51.24434916 308.86515967 51.25347201 316.07614136 51.26576233 C317.29260019 51.26778426 318.50905902 51.26980619 319.76238024 51.27188939 C322.25025564 51.2760582 324.73813098 51.28026096 327.22600627 51.2844969 C344.01719745 51.31265335 360.80827505 51.33277645 377.5994873 51.31549072 C388.92071754 51.30393127 400.24171199 51.31352874 411.56289995 51.34754831 C417.55427771 51.36470341 423.54523002 51.37099198 429.53660965 51.35143089 C435.17567202 51.33318772 440.81400202 51.34283947 446.45300293 51.37368774 C448.51974303 51.38004799 450.58654418 51.37621389 452.6532402 51.36129189 C471.52441076 51.23518066 471.52441076 51.23518066 477.96378136 56.60812855 C482.50838321 61.46084325 483.12821534 65.46844403 482.92224121 71.97247314 C481.32065139 81.66567718 472.60910724 89.76788323 466.55895996 97.20684814 C463.49511932 100.99192305 460.55546631 104.85890703 457.64880371 108.76544189 C453.00302547 115.00623476 448.30965576 121.20812407 443.58630371 127.39044189 C438.27750047 134.34172333 433.00777159 141.32016453 427.77380371 148.32794189 C422.31257665 155.63647584 416.76676206 162.87296793 411.14050293 170.05523682 C410.07855632 171.41138647 409.02108695 172.77105676 407.96862793 174.13458252 C406.87900454 175.52686025 405.76398737 176.89948809 404.62976074 178.25567627 C401.42496804 182.03758362 401.42496804 182.03758362 400.17614746 186.67169189 C402.00271054 190.35983205 404.39757713 193.43334239 406.96130371 196.64044189 C408.15322117 198.16478189 409.34460339 199.68954051 410.53552246 201.21466064 C411.16635742 202.01694092 411.79719238 202.81922119 412.44714355 203.64581299 C415.76295933 207.88411742 419.01637995 212.16970179 422.27380371 216.45294189 C422.94532471 217.33377441 423.6168457 218.21460693 424.30871582 219.12213135 C429.54352446 225.99449872 434.72182197 232.90804107 439.89221191 239.82891846 C444.01850186 245.33788226 448.21653253 250.78490623 452.46130371 256.20294189 C458.52277155 263.94315453 464.37722403 271.82228469 470.18005371 279.75762939 C472.17847598 282.48888542 474.19363002 285.20467645 476.24255371 287.89825439 C476.66496338 288.45400146 477.08737305 289.00974854 477.52258301 289.58233643 C478.62004372 291.02082365 479.72210811 292.45579549 480.82458496 293.89044189 C483.6573298 297.93922856 483.85978641 301.30012356 483.39880371 306.14044189 C481.38339157 311.45306829 479.38026535 316.10661939 474.39880371 319.14044189 C470.22301967 320.40216285 466.08539663 320.28542904 461.76037598 320.28088379 C460.43875332 320.28534047 460.43875332 320.28534047 459.09043121 320.28988719 C456.13201455 320.29857276 453.17363837 320.30008234 450.21520996 320.30157471 C448.09618544 320.30620312 445.97716175 320.31122781 443.85813904 320.31661987 C438.09535758 320.32974688 432.33258778 320.33618985 426.5697937 320.34063053 C422.96754805 320.34356181 419.36530558 320.34766681 415.76306152 320.3521347 C404.48739067 320.36581272 393.21172709 320.37547692 381.93604851 320.3793366 C368.93036619 320.38381305 355.9247892 320.40134057 342.91913891 320.43033719 C332.86120229 320.45198107 322.80329523 320.46204238 312.74533558 320.46337771 C306.74112208 320.46442414 300.73700754 320.47029703 294.7328186 320.48819733 C289.07917185 320.50472389 283.42569795 320.50681121 277.7720356 320.49805832 C275.70331928 320.4972903 273.63459349 320.50159943 271.5659008 320.51151657 C255.10700935 320.5857546 241.24225338 319.81613544 228.36755371 308.32794189 C220.42285735 299.96510362 216.8471662 290.18122652 215.5111084 278.92779541 C215.10231327 275.82174693 214.66877604 273.5215339 212.84167862 270.94240952 C209.48085373 268.46332325 206.49526699 268.57992063 202.47686768 268.62145996 C201.67501038 268.61396225 200.87315308 268.60646454 200.04699707 268.59873962 C197.34857629 268.57837912 194.65099011 268.58661044 191.95251465 268.59454346 C189.98960675 268.58574753 188.02670603 268.57520198 186.06381607 268.5630455 C180.80144795 268.53529728 175.53931669 268.53153464 170.27688599 268.53268433 C165.34104347 268.53014484 160.40539883 268.50604925 155.46960449 268.48370361 C141.02940057 268.43092136 126.58908678 268.41280587 112.14880371 268.39044189 C79.89130371 268.30794189 47.63380371 268.22544189 14.39880371 268.14044189 C14.39880371 345.03044189 14.39880371 421.92044189 14.39880371 501.14044189 C3.50880371 501.14044189 -7.38119629 501.14044189 -18.60119629 501.14044189 C-18.65237131 454.51004759 -18.70030506 407.87965162 -18.72822571 361.24923706 C-18.72863988 360.55929401 -18.72905405 359.86935095 -18.72948077 359.15850054 C-18.73845911 344.16484118 -18.74676971 329.17118153 -18.75439228 314.17752143 C-18.75813435 306.82482949 -18.762024 299.47213763 -18.76599121 292.1194458 C-18.76638349 291.38775744 -18.76677577 290.65606907 -18.76717993 289.90220833 C-18.77996815 266.17824892 -18.8025052 242.45431093 -18.83008795 218.7303645 C-18.85837705 194.35465864 -18.87685061 169.97896464 -18.88294126 145.60324264 C-18.88380575 142.1617913 -18.88478266 138.72034 -18.88582802 135.2788887 C-18.88603029 134.6015495 -18.88623256 133.92421031 -18.88644095 133.22634568 C-18.88998864 122.31499183 -18.90390963 111.40367459 -18.92169239 100.49233569 C-18.93934138 89.52763577 -18.94586023 78.56296683 -18.94170042 67.59825246 C-18.93977339 61.65533498 -18.94278778 55.71252511 -18.95881271 49.76962662 C-18.97336667 44.33271275 -18.97417797 38.8959793 -18.96389297 33.45905729 C-18.96262103 31.48856964 -18.96646459 29.51807093 -18.97584584 27.5476052 C-18.98783242 24.87526111 -18.98142834 22.20357385 -18.97033978 19.53124046 C-18.97822082 18.76087328 -18.98610186 17.99050609 -18.99422172 17.19679445 C-18.94936197 12.43355094 -18.12704555 9.1829898 -15.60119629 5.14044189 C-10.32233793 0.37659411 -6.92675966 -0.00705159 0 0 Z M14.39880371 33.14044189 C14.39880371 99.47044189 14.39880371 165.80044189 14.39880371 234.14044189 C80.05269099 234.31093219 80.05269099 234.31093219 145.70666504 234.43829346 C158.41577148 234.48370361 158.41577148 234.48370361 164.36882019 234.51000977 C168.51920704 234.52698857 172.66944921 234.53287464 176.81987 234.53198242 C182.12142075 234.5312091 187.4225875 234.54957403 192.72403848 234.58153105 C194.66502634 234.5900213 196.60605761 234.59190695 198.54705584 234.58626604 C213.56459133 234.54816314 225.06193347 236.09595799 236.26989746 246.95294189 C243.85107415 255.03953036 246.89141748 263.33388512 248.23571777 274.16363525 C248.89000495 278.91706443 249.94835905 281.76710214 253.39880371 285.14044189 C256.9315286 286.31801686 259.71089251 286.26335144 263.44120789 286.26069641 C264.16247638 286.26155084 264.88374487 286.26240526 265.62686998 286.26328558 C268.04981501 286.26493601 270.4726912 286.25942613 272.89562988 286.25396729 C274.63004047 286.25368529 276.36445118 286.25384338 278.09886169 286.25440979 C282.81342013 286.2546973 287.52795325 286.24880809 292.24250579 286.24183583 C297.1672692 286.23559454 302.09203317 286.23499788 307.01679993 286.23381042 C316.34527142 286.2306994 325.67373122 286.22248909 335.00219756 286.21246094 C345.62116871 286.2012927 356.2401404 286.19578755 366.85911596 286.1907655 C388.70568507 286.1803063 410.55224366 286.16271127 432.39880371 286.14044189 C431.77009369 285.02969299 431.14138367 283.91894409 430.49362183 282.77453613 C430.13997244 282.14973988 429.78632305 281.52494362 429.42195702 280.88121414 C428.23127388 278.85541005 426.90395943 277.02278429 425.43786621 275.18731689 C424.89146484 274.49597656 424.34506348 273.80463623 423.78210449 273.09234619 C423.20186523 272.36571777 422.62162598 271.63908936 422.02380371 270.89044189 C417.07656874 264.61534677 412.23805584 258.27991205 407.52380371 251.82794189 C402.5748249 245.06324595 397.55225836 238.36147993 392.46130371 231.70294189 C387.01513816 224.57899423 381.59326388 217.43805796 376.21130371 210.26544189 C375.59972412 209.45147949 374.98814453 208.63751709 374.35803223 207.79888916 C372.69835549 205.58421394 371.04591166 203.36447665 369.39880371 201.14044189 C368.65702881 200.14222412 368.65702881 200.14222412 367.90026855 199.12384033 C364.55471139 194.54898542 363.24234229 191.46364136 363.14880371 185.82794189 C363.12302246 184.90368408 363.09724121 183.97942627 363.07067871 183.02716064 C363.91478652 175.60102173 369.40175912 169.96877044 373.83630371 164.26544189 C375.29384194 162.37260301 376.75086933 160.47937066 378.20739746 158.58575439 C379.28223389 157.1921167 379.28223389 157.1921167 380.37878418 155.77032471 C383.08293267 152.24976784 385.74529955 148.69923207 388.39880371 145.14044189 C392.98230023 139.00422994 397.62209501 132.91256276 402.27380371 126.82794189 C409.25460959 117.68855349 416.11602295 108.46696769 422.90368652 99.18341064 C424.28090387 97.30154344 425.66307727 95.42345223 427.04724121 93.54669189 C427.78200684 92.54637939 428.51677246 91.54606689 429.27380371 90.51544189 C429.88997559 89.67755127 430.50614746 88.83966064 431.14099121 87.97637939 C432.49300158 86.37386136 432.49300158 86.37386136 432.39880371 85.14044189 C431.47096416 85.13897533 430.5431246 85.13750877 429.58716869 85.13599777 C406.98441492 85.09936166 384.38180885 85.03985815 361.77917767 84.95653915 C350.84859161 84.91677267 339.9180773 84.88436801 328.98742676 84.8694458 C319.45746049 84.85641692 309.92765225 84.82942062 300.39777499 84.78582883 C295.35430088 84.76324192 290.31102147 84.74752956 285.26749229 84.74855804 C280.51416475 84.74930629 275.76126716 84.73128955 271.00805092 84.69927406 C269.26951688 84.69079987 267.53093448 84.68900817 265.79238892 84.69463921 C251.3157841 84.73525933 239.45815856 82.45093879 228.46130371 72.36309814 C220.72641209 64.2114559 217.90725932 54.88397089 216.56188965 43.97857666 C215.93140445 39.41072197 215.09827876 36.97362912 211.39880371 34.14044189 C208.33101849 32.60654928 205.12091834 33.00716377 201.75534058 33.02018738 C200.56123314 33.01890335 200.56123314 33.01890335 199.34300232 33.01759338 C196.65243327 33.01593099 193.96192572 33.02147349 191.2713623 33.0269165 C189.31871861 33.02722266 187.36607481 33.02708965 185.41343117 33.02655125 C180.16963914 33.02632487 174.92586979 33.03213375 169.68208313 33.03916168 C164.76709926 33.04484354 159.852121 33.04512409 154.93713379 33.0458374 C140.54935408 33.05109122 126.16157861 33.06505228 111.77380371 33.07794189 C79.64005371 33.09856689 47.50630371 33.11919189 14.39880371 33.14044189 Z " fill="#000000" transform="translate(23.6011962890625,5.85955810546875)"/>
</svg>
