<?xml version="1.0" encoding="UTF-8"?>
<svg version="1.1" xmlns="http://www.w3.org/2000/svg" width="512" height="512">
<path d="M0 0 C1.67714761 -0.00302229 3.35429384 -0.00691216 5.03143764 -0.01159257 C9.63065983 -0.02187151 14.22980407 -0.01969099 18.82903266 -0.01541197 C23.79304834 -0.01294454 28.75704527 -0.0219592 33.72105408 -0.02944946 C43.4429586 -0.04219848 53.1648355 -0.04398986 62.88674697 -0.0416492 C70.79025174 -0.03986592 78.69374813 -0.04161589 86.59725189 -0.04587364 C88.28478704 -0.04676643 88.28478704 -0.04676643 90.0064138 -0.04767724 C92.29195176 -0.048889 94.57748971 -0.05010314 96.86302766 -0.05131962 C118.29738763 -0.06219618 139.73173187 -0.06003226 161.16609272 -0.05393478 C180.76723867 -0.04876688 200.3683349 -0.06001751 219.96947101 -0.07903299 C240.10208786 -0.09841412 260.23468119 -0.10666682 280.36730742 -0.10290974 C291.66770167 -0.10099794 302.96805361 -0.10348312 314.26844025 -0.11762428 C323.8898538 -0.12954262 333.51119901 -0.13093794 343.13261351 -0.11883412 C348.0393958 -0.11294833 352.94605313 -0.11183772 357.85282707 -0.12383652 C362.34974343 -0.13470503 366.84643063 -0.13158041 371.34333631 -0.11757483 C372.96510335 -0.11493055 374.5868884 -0.11728595 376.20863774 -0.1253107 C395.37832297 -0.2135384 411.54015885 4.62731498 425.65594482 17.98139954 C436.91113417 29.25398485 443.83999538 44.66850153 443.94423044 60.56121176 C443.94113323 61.618507 443.93803603 62.67580223 443.93484497 63.76513672 C443.93937608 64.90619442 443.9439072 66.04725213 443.94857562 67.22288734 C443.96121145 71.03720824 443.95959974 74.85138622 443.95794678 78.66572571 C443.96284743 81.40440405 443.97068194 84.14307244 443.978302 86.88174438 C443.99488244 93.54391207 444.00041023 100.20604436 444.00152676 106.86823096 C444.00247873 112.28698424 444.00659647 117.70572588 444.01292801 123.12447548 C444.03053313 138.50587053 444.03976814 153.88723773 444.03826706 169.26864292 C444.03814719 170.51127312 444.03814719 170.51127312 444.0380249 171.77900696 C444.03794314 172.60844505 444.03786138 173.43788313 444.03777714 174.29245571 C444.03696467 187.72712149 444.0560944 201.16167504 444.08430164 214.59630837 C444.11307203 228.40877397 444.12683962 242.22118491 444.12511408 256.03368121 C444.12445157 263.7811255 444.12988284 271.52845216 444.15147018 279.27586937 C444.16973688 285.87357363 444.1739846 292.47110695 444.16045134 299.06882562 C444.15394874 302.43060302 444.15590486 305.79178722 444.17115784 309.1535759 C444.28057273 334.94720642 444.28057273 334.94720642 439.66741943 345.26069641 C439.16081787 346.47886047 438.65421631 347.69702454 438.13226318 348.95210266 C429.58636848 365.01663619 416.91792277 376.05330505 399.66741943 382.26069641 C391.25129546 384.67576262 382.93229951 384.5436117 374.25254822 384.52139282 C372.57866235 384.5244159 370.90477787 384.52830616 369.23089582 384.53298539 C364.64533444 384.54325408 360.05985134 384.54108644 355.47428358 384.5368048 C350.52323719 384.53433551 345.57220955 384.54335427 340.62117004 384.55084229 C330.92680819 384.56358586 321.23247403 384.56538338 311.53810521 384.56304202 C303.65703092 384.56125826 295.77596503 384.56300976 287.89489174 384.56726646 C286.77277916 384.56786165 285.65066658 384.56845684 284.49455059 384.56907007 C282.21489117 384.57028183 279.93523175 384.57149597 277.65557233 384.57271244 C256.28081956 384.58358675 234.90608256 384.58142605 213.53132889 384.5753276 C193.98521195 384.57015902 174.43914485 384.58141252 154.89303776 384.60042582 C134.81462984 384.6198069 114.73624549 384.62805971 94.65782815 384.62430257 C83.38874789 384.62239087 72.11971006 384.62487497 60.85063744 384.63901711 C51.25669641 384.65093533 41.66282392 384.65233083 32.06888195 384.64022694 C27.17626945 384.63434128 22.28378226 384.6332302 17.39117813 384.64522934 C12.90725441 384.65609816 8.42356049 384.65297287 3.93964747 384.63896766 C2.32262093 384.63632348 0.70557631 384.63867844 -0.91143248 384.64670352 C-20.06518299 384.73511984 -36.21868352 379.88143541 -50.32110596 366.53999329 C-61.5762953 355.26740797 -68.50515651 339.8528913 -68.60939157 323.96018106 C-68.60629437 322.90288582 -68.60319716 321.84559059 -68.6000061 320.7562561 C-68.60453722 319.6151984 -68.60906833 318.4741407 -68.61373675 317.29850549 C-68.62637259 313.48418458 -68.62476087 309.67000661 -68.62310791 305.85566711 C-68.62800856 303.11698877 -68.63584308 300.37832038 -68.64346313 297.63964844 C-68.66004358 290.97748075 -68.66557136 284.31534846 -68.66668789 277.65316186 C-68.66763986 272.23440859 -68.67175761 266.81566694 -68.67808914 261.39691734 C-68.69569426 246.01552229 -68.70492927 230.6341551 -68.70342819 215.2527499 C-68.70334828 214.42432977 -68.70326837 213.59590964 -68.70318604 212.74238586 C-68.70310427 211.91294778 -68.70302251 211.08350969 -68.70293827 210.22893711 C-68.7021258 196.79427133 -68.72125554 183.35971778 -68.74946277 169.92508445 C-68.77823316 156.11261885 -68.79200075 142.30020791 -68.79027522 128.48771161 C-68.7896127 120.74026732 -68.79504397 112.99294066 -68.81663132 105.24552345 C-68.83489801 98.6478192 -68.83914574 92.05028588 -68.82561247 85.4525672 C-68.81910987 82.0907898 -68.821066 78.72960561 -68.83631897 75.36781693 C-68.94573386 49.5741864 -68.94573386 49.5741864 -64.33258057 39.26069641 C-63.825979 38.04253235 -63.31937744 36.82436829 -62.79742432 35.56929016 C-53.61461584 18.30748905 -39.75622154 7.38954467 -21.17831802 1.21180439 C-14.27194413 -0.46491089 -7.06256277 -0.01799885 0 0 Z M50.66741943 32.26069641 C53.41884301 35.01211999 55.35809952 36.88460271 58.47821045 38.91670227 C59.22176285 39.40456711 59.96531525 39.89243195 60.73139954 40.39508057 C61.93916298 41.17740807 61.93916298 41.17740807 63.17132568 41.97554016 C64.02472031 42.53427322 64.87811493 43.09300629 65.75737 43.66867065 C67.60746332 44.87967501 69.45888009 46.08865937 71.3114624 47.29585266 C76.32417757 50.56330093 81.3260182 53.84729688 86.32757568 57.13179016 C87.35827179 57.80837677 88.3889679 58.48496338 89.45089722 59.18205261 C98.86604368 65.37201747 108.21153849 71.66199082 117.54016113 77.9813385 C132.70099511 88.24928584 147.888354 98.47826868 163.14398193 108.60493469 C165.10594631 109.90913627 167.06577662 111.21655436 169.02337646 112.52729797 C171.73099292 114.3392142 174.44609263 116.13931056 177.16351318 117.93647766 C177.96868881 118.47867447 178.77386444 119.02087128 179.60343933 119.57949829 C180.34699173 120.06766525 181.09054413 120.55583221 181.85662842 121.05879211 C182.49970444 121.48650406 183.14278046 121.914216 183.80534363 122.35488892 C185.92180073 123.55232272 185.92180073 123.55232272 189.66741943 123.26069641 C191.59289608 122.37538561 191.59289608 122.37538561 193.47821045 121.05879211 C194.22176285 120.57062515 194.96531525 120.08245819 195.73139954 119.57949829 C196.53657516 119.03730148 197.34175079 118.49510468 198.17132568 117.93647766 C199.45141762 117.08988838 199.45141762 117.08988838 200.75737 116.22619629 C203.58761048 114.3508119 206.40873327 112.46216864 209.22991943 110.57319641 C211.21906652 109.25092532 213.20865667 107.92932055 215.19866943 106.60835266 C230.32805927 96.55072884 245.38657745 86.38677012 260.42767334 76.19770813 C269.91268527 69.77821181 279.43260534 63.41694564 289.00726318 57.13179016 C290.53264206 56.13008286 290.53264206 56.13008286 292.08883667 55.10813904 C297.00720897 51.88049877 301.9300478 48.65992287 306.85882568 45.44819641 C308.62711582 44.29073748 310.39534812 43.13319016 312.16351318 41.97554016 C312.96868881 41.45398849 313.77386444 40.93243683 314.60343933 40.39508057 C315.34699173 39.90721573 316.09054413 39.41935089 316.85662842 38.91670227 C317.49970444 38.49787277 318.14278046 38.07904327 318.80534363 37.64752197 C321.1499361 35.97116631 321.1499361 35.97116631 324.66741943 32.26069641 C234.24741943 32.26069641 143.82741943 32.26069641 50.66741943 32.26069641 Z M-26.73492432 41.44429016 C-35.47911126 51.38572519 -36.64630966 62.41523071 -36.58654785 75.22822571 C-36.58966783 76.27525256 -36.59278781 77.32227942 -36.59600234 78.40103436 C-36.60392431 81.87905338 -36.5976814 85.35689511 -36.59136963 88.83491516 C-36.59408206 91.34082643 -36.59764441 93.8467369 -36.60198975 96.35264587 C-36.61014286 102.43422094 -36.60897697 108.51572747 -36.60316446 114.59729981 C-36.59863454 119.54307602 -36.59804081 124.4888384 -36.6002121 129.43461609 C-36.60051856 130.14044223 -36.60082503 130.84626836 -36.60114078 131.57348317 C-36.60178028 133.00767525 -36.60242871 134.44186734 -36.60308596 135.87605941 C-36.6087793 149.30194379 -36.60224704 162.72780079 -36.59148523 176.15368068 C-36.58255063 187.65583765 -36.58410295 199.15795424 -36.59332275 210.66011047 C-36.60404302 224.04030045 -36.60823007 237.42046647 -36.60209823 250.80066013 C-36.60146118 252.22936566 -36.60083243 253.6580712 -36.6002121 255.08677673 C-36.59990355 255.78959626 -36.599595 256.49241579 -36.59927709 257.21653289 C-36.59755542 262.15227028 -36.60045384 267.08799239 -36.6051712 272.02372742 C-36.61138936 278.67549728 -36.60691708 285.32720297 -36.59538269 291.97896957 C-36.59274506 294.41576893 -36.59348582 296.85257472 -36.59790802 299.28937149 C-36.60340033 302.62405553 -36.59648466 305.9584983 -36.58654785 309.29316711 C-36.59100929 310.24970531 -36.59547074 311.2062435 -36.60006738 312.19176769 C-36.53795528 322.99178247 -35.22183278 332.63811422 -28.33258057 341.26069641 C-21.06395021 348.3949713 -14.40772638 351.33738847 -4.33258057 351.26069641 C-4.33111401 350.00356276 -4.32964745 348.7464291 -4.32813644 347.45120049 C-4.29243694 317.61154131 -4.23619943 287.77199799 -4.15465961 257.93243217 C-4.14464212 254.25995294 -4.134798 250.58747327 -4.12506104 246.91499329 C-4.12311966 246.18386653 -4.12117829 245.45273977 -4.11917809 244.69945766 C-4.08815425 232.86007238 -4.07117637 221.02070649 -4.05938634 209.18128823 C-4.04697676 197.03357061 -4.01947975 184.88595477 -3.9779675 172.7383014 C-3.95282649 165.24209633 -3.93946372 157.74606003 -3.94115099 150.2498122 C-3.94118426 144.50233884 -3.92022948 138.75509019 -3.89141273 133.00769615 C-3.88288246 130.64944742 -3.88118488 128.29116272 -3.88677788 125.9329052 C-3.89339197 122.71601523 -3.87555812 119.50015702 -3.8515625 116.28337097 C-3.85932292 115.34756569 -3.86708333 114.4117604 -3.87507892 113.44759738 C-3.80158676 107.89197245 -3.06973193 104.65239006 0.66741943 100.26069641 C5.15704281 96.82401403 8.97184626 96.56769427 14.49163818 96.72944641 C20.20256054 97.68477906 24.15593296 100.78697611 28.66741943 104.26069641 C29.68577881 105.03284485 30.70413818 105.80499329 31.75335693 106.60054016 C33.94693869 108.27520651 36.12585001 109.9674551 38.30023193 111.66694641 C41.59124396 114.22344271 44.95568399 116.66317449 48.35491943 119.07319641 C48.92935791 119.48062073 49.50379639 119.88804504 50.09564209 120.30781555 C51.30825938 121.16742794 52.52099066 122.02687954 53.73382568 122.88618469 C64.42487507 130.48600894 75.0083412 138.23344187 85.55853271 146.02705383 C93.88177824 152.1694285 102.27141138 158.21836561 110.66741943 164.26069641 C120.67292341 171.46132849 130.64430421 178.70320427 140.55950928 186.02778625 C147.38907673 191.06782528 154.26037775 196.04784808 161.15179443 201.00288391 C164.32067392 203.28286349 167.47429576 205.582406 170.62054443 207.89350891 C171.84052124 208.78574158 171.84052124 208.78574158 173.08514404 209.69599915 C174.64115644 210.8344945 176.1942326 211.9770177 177.74383545 213.1242218 C182.80314583 217.08575619 182.80314583 217.08575619 188.66741943 219.26069641 C191.03440583 218.01541441 192.79176066 216.84298995 194.85491943 215.19819641 C196.10449275 214.25362127 197.35451469 213.3096394 198.60491943 212.36616516 C199.26491943 211.85875793 199.92491943 211.35135071 200.60491943 210.8285675 C204.13315694 208.14647219 207.75112004 205.58977455 211.35491943 203.01069641 C218.45880736 197.88706561 225.5135848 192.69856588 232.55853271 187.49433899 C241.61847965 180.80829467 250.75778056 174.23333622 259.89691162 167.65620422 C268.3533498 161.56830891 276.78630853 155.452009 285.16741943 149.26069641 C295.02149764 141.98127019 304.95316277 134.81239317 314.89691162 127.65620422 C317.13352077 126.0460414 319.36941655 124.43489474 321.60491943 122.82319641 C322.3376709 122.29524475 323.07042236 121.76729309 323.82537842 121.2233429 C327.81570498 118.34199695 331.78801331 115.43832812 335.74163818 112.50679016 C336.58541016 111.88151428 337.42918213 111.2562384 338.29852295 110.61201477 C339.90914744 109.41638427 341.5178515 108.21816042 343.12420654 107.01679993 C357.40944251 96.40842697 357.40944251 96.40842697 366.89007568 96.83882141 C371.687264 97.56750824 374.31733233 99.58026271 377.29484272 103.28632641 C379.27795165 107.58371806 379.09031685 111.48267096 379.06614685 116.16311646 C379.07611709 117.67023013 379.07611709 117.67023013 379.08628875 119.20779055 C379.10495732 122.57814893 379.10231081 125.94815351 379.09979248 129.31855774 C379.10880726 131.73306278 379.11913377 134.14756322 379.13067627 136.5620575 C379.15257993 141.76216153 379.16534744 146.96220299 379.16980553 152.16234779 C379.17626693 159.68085146 379.19920409 167.19923402 379.22614882 174.71768888 C379.26941907 186.9161711 379.29938445 199.11464822 379.32098389 211.31318665 C379.34199287 223.16217047 379.36926724 235.01111258 379.40496826 246.86006165 C379.40716709 247.59056194 379.40936591 248.32106224 379.41163137 249.07369892 C379.422701 252.73844352 379.43389381 256.40318773 379.44514787 260.06793177 C379.53833634 290.46548456 379.60971108 320.86305435 379.66741943 351.26069641 C388.39250846 351.36924919 395.60728113 349.17291907 402.06976318 343.07710266 C410.81395012 333.13566763 411.98114853 322.10616211 411.92138672 309.29316711 C411.9245067 308.24614026 411.92762668 307.19911341 411.93084121 306.12035847 C411.93876318 302.64233944 411.93252027 299.16449772 411.9262085 295.68647766 C411.92892093 293.18056639 411.93248328 290.67465592 411.93682861 288.16874695 C411.94498172 282.08717188 411.94381583 276.00566535 411.93800333 269.92409301 C411.93347341 264.9783168 411.93287967 260.03255442 411.93505096 255.08677673 C411.93551066 254.02803753 411.93551066 254.02803753 411.93597965 252.94790965 C411.93661915 251.51371757 411.93726757 250.07952549 411.93792483 248.64533341 C411.94361817 235.21944903 411.93708591 221.79359203 411.9263241 208.36771214 C411.91738949 196.86555517 411.91894182 185.36343859 411.92816162 173.86128235 C411.93888189 160.48109238 411.94306894 147.10092636 411.93693709 133.72073269 C411.93630004 132.29202716 411.9356713 130.86332163 411.93505096 129.43461609 C411.93474241 128.73179656 411.93443386 128.02897703 411.93411596 127.30485994 C411.93239429 122.36912254 411.93529271 117.43340043 411.94001007 112.49766541 C411.94622823 105.84589554 411.94175595 99.19418985 411.93022156 92.54242325 C411.92758393 90.10562389 411.92832468 87.6688181 411.93274689 85.23202133 C411.9382392 81.89733729 411.93132353 78.56289452 411.92138672 75.22822571 C411.92584816 74.27168752 411.93030961 73.31514933 411.93490624 72.32962513 C411.87279415 61.52961035 410.55667164 51.8832786 403.66741943 43.26069641 C398.6681812 38.35386553 393.43527656 35.06545831 386.66741943 33.26069641 C381.37227623 33.49673722 377.52657711 36.76732532 373.31976318 39.68257141 C372.49271378 40.24554932 371.66566437 40.80852722 370.81355286 41.38856506 C369.01745537 42.61211145 367.22380094 43.83925004 365.43231201 45.0695343 C360.57314472 48.40562265 355.69546888 51.71447283 350.81976318 55.02632141 C349.81142426 55.71218323 348.80308533 56.39804504 347.76419067 57.10469055 C337.46884395 64.09746973 327.07465112 70.93607553 316.66741943 77.76069641 C302.09684021 87.32487785 287.60037098 96.99010948 273.16741943 106.76069641 C258.12663545 116.94123282 243.02332482 127.02121434 227.85491943 137.01069641 C226.93452881 137.61711975 226.01413818 138.22354309 225.06585693 138.8483429 C220.0176829 142.1730274 214.96282012 145.48718479 209.90228271 148.79301453 C207.763404 150.19766132 205.6351946 151.61714264 203.50921631 153.04121399 C202.26386782 153.8658192 201.0184315 154.69029177 199.77288818 155.51460266 C198.72383301 156.21657776 197.67477783 156.91855286 196.59393311 157.64179993 C192.52249152 159.89405063 189.4407982 160.58877676 184.80950928 160.19380188 C180.95744852 159.04985656 177.85104122 157.19782257 174.51898193 155.01850891 C173.82915222 154.57711075 173.13932251 154.13571259 172.42858887 153.68093872 C164.39987487 148.50975206 156.4997086 143.14171906 148.60247803 137.77290344 C132.70885245 126.97194349 116.73186225 116.30565622 100.66741943 105.76069641 C86.09798703 96.19468066 71.60148437 86.52972733 57.16741943 76.76069641 C42.86280054 67.08693466 28.53225275 57.4533691 14.13592529 47.91645813 C12.16768613 46.61142119 10.20103134 45.30399134 8.23602295 43.99409485 C5.51965124 42.18426708 2.7975694 40.38338552 0.07366943 38.58491516 C-0.73666748 38.04271835 -1.54700439 37.50052155 -2.38189697 36.94189453 C-3.49733887 36.20964409 -3.49733887 36.20964409 -4.63531494 35.46260071 C-5.28061157 35.03488876 -5.9259082 34.60717682 -6.59075928 34.16650391 C-12.84080603 30.91626278 -22.21419229 37.18005357 -26.73492432 41.44429016 Z M27.66741943 145.26069641 C27.66741943 207.96069641 27.66741943 270.66069641 27.66741943 335.26069641 C32.23293425 333.43449048 34.82776805 331.77098604 38.60491943 328.76069641 C43.11581861 325.21334022 47.67122216 321.76435138 52.35491943 318.44819641 C52.92887451 318.04117493 53.50282959 317.63415344 54.09417725 317.21479797 C55.30725325 316.354737 56.52047362 315.49487961 57.73382568 314.63520813 C68.42487507 307.03538388 79.0083412 299.28795096 89.55853271 291.49433899 C98.61847965 284.80829467 107.75778056 278.23333622 116.89691162 271.65620422 C126.37663532 264.83163289 135.82174118 257.96400996 145.21209717 251.01679993 C149.66802159 247.72215454 154.14867132 244.46870831 158.66741943 241.26069641 C157.36576064 237.35572004 154.99115998 236.10645653 151.72991943 233.88569641 C150.44297266 232.98795871 149.15653878 232.08948542 147.87054443 231.19038391 C146.84283936 230.47640442 146.84283936 230.47640442 145.79437256 229.7480011 C142.1615911 227.20772278 138.57146252 224.60880053 134.97991943 222.01069641 C134.22589844 221.46622864 133.47187744 220.92176086 132.69500732 220.36079407 C126.3590798 215.77866195 120.0655086 211.14028342 113.77630615 206.49433899 C105.45306063 200.35196433 97.06342749 194.30302722 88.66741943 188.26069641 C78.67215875 181.0674361 68.7096511 173.83471129 58.80609131 166.51557922 C52.38708359 161.77698171 45.92881759 157.0945305 39.45257568 152.43452454 C38.75132568 151.92985657 38.05007568 151.4251886 37.32757568 150.90522766 C36.6819165 150.44197083 36.03625732 149.97871399 35.37103271 149.50141907 C33.98915892 148.49501571 32.63434069 147.45153622 31.28851318 146.39741516 C29.72448299 145.06932167 29.72448299 145.06932167 27.66741943 145.26069641 Z M338.66741943 150.44819641 C337.20753132 151.558952 335.7465541 152.6682773 334.28460693 153.77632141 C333.52373779 154.35317688 332.76286865 154.93003235 331.97894287 155.52436829 C328.28574775 158.29855541 324.54213158 161.00112864 320.79241943 163.69819641 C320.04274902 164.23799133 319.29307861 164.77778625 318.52069092 165.3339386 C316.23697606 166.97717957 313.95222236 168.61896878 311.66741943 170.26069641 C302.46548421 176.8801595 293.28498985 183.52534484 284.16741943 190.26069641 C274.31334123 197.54012263 264.3816761 204.70899965 254.43792725 211.8651886 C244.83927267 218.77537975 235.27744399 225.73130677 225.7711792 232.76826477 C225.01635254 233.3265094 224.26152588 233.88475403 223.48382568 234.45991516 C222.81810547 234.95322327 222.15238525 235.44653137 221.4664917 235.95478821 C219.89447158 237.0958841 218.28368587 238.18318545 216.66741943 239.26069641 C217.96907823 243.16567279 220.34367889 244.41493629 223.60491943 246.63569641 C224.89186621 247.53343412 226.17830009 248.4319074 227.46429443 249.33100891 C228.49199951 250.0449884 228.49199951 250.0449884 229.54046631 250.77339172 C233.17324777 253.31367004 236.76337634 255.91259229 240.35491943 258.51069641 C241.48595093 259.32739807 241.48595093 259.32739807 242.63983154 260.16059875 C248.97575906 264.74273087 255.26933026 269.38110941 261.55853271 274.02705383 C269.88177824 280.1694285 278.27141138 286.21836561 286.66741943 292.26069641 C296.66268011 299.45395673 306.62518777 306.68668153 316.52874756 314.0058136 C322.94775528 318.74441111 329.40602128 323.42686232 335.88226318 328.08686829 C336.58351318 328.59153625 337.28476318 329.09620422 338.00726318 329.61616516 C338.97575195 330.31105042 338.97575195 330.31105042 339.96380615 331.01997375 C341.34567994 332.02637711 342.70049817 333.06985661 344.04632568 334.12397766 C345.61035587 335.45207115 345.61035587 335.45207115 347.66741943 335.26069641 C347.66741943 272.56069641 347.66741943 209.86069641 347.66741943 145.26069641 C344.09002943 145.26069641 341.41680032 148.32742308 338.66741943 150.44819641 Z M183.16741943 263.64741516 C182.09826294 264.42653259 182.09826294 264.42653259 181.00750732 265.22138977 C180.23527832 265.79123596 179.46304932 266.36108215 178.66741943 266.94819641 C177.02039821 268.15147773 175.37325961 269.3545984 173.72601318 270.55757141 C172.88280518 271.17567688 172.03959717 271.79378235 171.1708374 272.43061829 C168.1025482 274.67363524 165.01871027 276.89446262 161.93304443 279.11347961 C154.97713764 284.11689173 148.05930673 289.16950635 141.16741943 294.26069641 C132.78793485 300.4508076 124.35634581 306.5654395 115.90130615 312.65180969 C112.15382168 315.35081763 108.41082865 318.05604063 104.66741943 320.76069641 C100.13360344 324.03599613 95.59914398 327.31038873 91.06195068 330.58100891 C87.32353438 333.27634916 83.58767914 335.9751943 79.85443115 338.6776886 C78.37742213 339.74678064 76.89986926 340.81512165 75.42181396 341.88276672 C73.29284593 343.42199422 71.16717035 344.96565488 69.04241943 346.51069641 C68.39635742 346.97685364 67.75029541 347.44301086 67.08465576 347.92329407 C65.59385344 349.01099332 64.12757921 350.13219534 62.66741943 351.26069641 C62.66741943 351.59069641 62.66741943 351.92069641 62.66741943 352.26069641 C145.16741943 352.26069641 227.66741943 352.26069641 312.66741943 352.26069641 C308.56157965 348.08808441 308.56157965 348.08808441 304.12835693 344.63960266 C303.47552734 344.18657776 302.82269775 343.73355286 302.15008545 343.26679993 C301.45455566 342.79041077 300.75902588 342.31402161 300.04241943 341.82319641 C293.70087135 337.41483664 287.43505691 332.92162939 281.22991943 328.32319641 C275.04643626 323.74642528 268.8450904 319.1974304 262.60491943 314.69819641 C261.86564209 314.16516907 261.12636475 313.63214172 260.36468506 313.08296204 C258.13278006 311.47482088 255.90023153 309.86757783 253.66741943 308.26069641 C244.46682389 301.63933046 235.2850612 294.99601666 226.16741943 288.26069641 C217.68501412 281.99526357 209.16176049 275.78897052 200.5927124 269.64253235 C199.3769349 268.76993526 198.16226505 267.89579091 196.94915771 267.01948547 C195.52522715 265.99111595 194.09656432 264.9693071 192.66741943 263.94819641 C191.92491943 263.4158136 191.18241943 262.88343079 190.41741943 262.33491516 C187.23861024 260.3836372 185.92781187 261.6206055 183.16741943 263.64741516 Z " fill="#000000" transform="translate(68.33258056640625,63.73930358886719)"/>
</svg>
