<?xml version="1.0" encoding="UTF-8"?>
<svg version="1.1" xmlns="http://www.w3.org/2000/svg" width="512" height="512">
<path d="M0 0 C1.19367188 -0.01675781 2.38734375 -0.03351563 3.6171875 -0.05078125 C9.96570516 0.6066933 14.06990363 3.5104122 18.125 8.3125 C22.70789544 15.4885912 22.69535856 21.73436899 22.64257812 30.10961914 C22.6480067 31.49531792 22.65513348 32.88101092 22.66381836 34.26669312 C22.6819795 38.01312008 22.67501121 41.75910399 22.66230202 45.50553823 C22.65212252 49.44498273 22.66158267 53.38439116 22.66784668 57.32383728 C22.67511475 63.94537095 22.66556385 70.56672593 22.64648438 77.18823242 C22.62478013 84.80789896 22.63172315 92.4271362 22.65379 100.04679209 C22.67204368 106.61617255 22.67445215 113.18542499 22.66403532 119.75482267 C22.65784662 123.66597116 22.65683413 127.57691922 22.67018127 131.48805428 C22.68188306 135.17451138 22.6734584 138.86042588 22.65060425 142.54682541 C22.64293496 144.51790912 22.65455422 146.48903965 22.66711426 148.46009827 C22.49798211 166.63817964 16.32860822 182.78830395 3.66015625 196 C-10.72261607 209.11957043 -27.37658614 214.63069237 -46.68876648 214.5909729 C-47.71905324 214.5967653 -48.74934001 214.6025577 -49.81084758 214.60852563 C-53.23159698 214.62540691 -56.6522105 214.62839186 -60.07299805 214.63134766 C-62.53764675 214.64065403 -65.00229232 214.65082375 -67.4669342 214.66178894 C-72.75696127 214.68339315 -78.04695361 214.6990382 -83.33701134 214.70915604 C-90.98536303 214.72379484 -98.6336483 214.74934594 -106.28196082 214.77748732 C-118.6934087 214.82286125 -131.10486619 214.85951472 -143.51635742 214.890625 C-155.5668303 214.92084917 -167.61727972 214.95521709 -179.66772461 214.99511719 C-180.78351301 214.99880951 -180.78351301 214.99880951 -181.9218426 215.00257643 C-185.65388366 215.01495178 -189.38592444 215.02740817 -193.1179651 215.03990483 C-224.03694486 215.14333176 -254.9559505 215.23243498 -285.875 215.3125 C-285.15074829 216.10805298 -285.15074829 216.10805298 -284.41186523 216.91967773 C-283.77966064 217.62552002 -283.14745605 218.3313623 -282.49609375 219.05859375 C-281.86888428 219.7539624 -281.2416748 220.44933105 -280.59545898 221.16577148 C-276.4979801 226.27846225 -275.19187394 231.82280247 -275.875 238.3125 C-277.58433773 245.98464375 -280.56897144 249.88358106 -286.9375 254.5625 C-293.01485249 258.18305042 -298.99252068 258.00987403 -305.75 256.375 C-314.82478222 252.60635609 -322.15671047 243.19586872 -329.0234375 236.3671875 C-329.84325104 235.55307404 -330.66306458 234.73896057 -331.50772095 233.900177 C-333.22152543 232.19573433 -334.93394662 230.48989969 -336.64501953 228.78271484 C-339.25757967 226.17994874 -341.8806241 223.58804728 -344.50390625 220.99609375 C-346.17773983 219.32878381 -347.85093947 217.66083714 -349.5234375 215.9921875 C-350.30262543 215.22534637 -351.08181335 214.45850525 -351.88461304 213.66842651 C-358.21089802 207.31606963 -362.51534149 201.70737763 -363.125 192.5625 C-362.74417847 176.68517146 -345.2884652 164.45119348 -334.93725586 154.0246582 C-333.26715408 152.33791902 -331.60244693 150.6458217 -329.94311523 148.94848633 C-327.51724082 146.46760343 -325.07509795 144.00380183 -322.62890625 141.54296875 C-321.89942276 140.79081589 -321.16993927 140.03866302 -320.41835022 139.26371765 C-314.7923436 133.66026399 -308.68006553 129.28682689 -300.7734375 127.68359375 C-293.69251863 127.86993372 -288.38309977 129.015355 -283.12109375 133.9609375 C-277.9706019 139.64509477 -276.35398454 144.74604309 -276.48828125 152.390625 C-277.41299828 159.37737589 -280.94404796 164.49579557 -285.875 169.3125 C-254.29006695 169.40377567 -222.70517147 169.47455172 -191.12013733 169.51676132 C-187.39014993 169.52176407 -183.66016279 169.52694136 -179.93017578 169.53222656 C-178.81632889 169.53380043 -178.81632889 169.53380043 -177.67998004 169.53540608 C-165.66083793 169.55280522 -153.64177245 169.58434019 -141.62267578 169.62111118 C-129.28742656 169.65853431 -116.95221745 169.68073875 -104.6169138 169.68885398 C-97.00703709 169.69433893 -89.39737698 169.7116545 -81.78756696 169.74416587 C-75.94963111 169.76783481 -70.11180608 169.77031637 -64.27382088 169.76493073 C-61.88090749 169.76603118 -59.4879859 169.77398792 -57.09512138 169.7893219 C-53.82645962 169.80924078 -50.55872249 169.80443145 -47.29003906 169.79351807 C-46.34449567 169.80516943 -45.39895227 169.8168208 -44.42475605 169.82882524 C-37.81239598 169.76920508 -32.07254801 168.56698398 -27.29022342 163.69950467 C-20.90336456 155.90539788 -21.59091185 145.55630358 -21.63549805 136.02514648 C-21.63240637 134.02170649 -21.62930845 132.0182665 -21.62597525 130.01482689 C-21.62415961 127.87786719 -21.62707626 125.74095807 -21.63117027 123.604002 C-21.63882484 119.13576716 -21.6280754 114.66769052 -21.6139679 110.19947815 C-21.57635222 97.49959639 -21.55804414 84.7997886 -21.56958008 72.09985352 C-21.57580561 65.07266992 -21.56417518 58.04574412 -21.53313476 51.01862389 C-21.51453995 46.582409 -21.51773984 42.14692785 -21.53730237 37.71072567 C-21.54583052 34.29716705 -21.52172746 30.88397227 -21.50268555 27.47045898 C-21.51445328 26.25101089 -21.52622101 25.03156281 -21.53834534 23.77516174 C-21.46063012 16.66696521 -20.62139298 11.76773884 -15.875 6.3125 C-10.73818103 1.55154583 -7.01294988 0.02262242 0 0 Z " fill="#000000" transform="translate(436.875,159.6875)"/>
</svg>
