<?xml version="1.0" standalone="no"?>
<!DOCTYPE svg PUBLIC "-//W3C//DTD SVG 20010904//EN"
 "http://www.w3.org/TR/2001/REC-SVG-20010904/DTD/svg10.dtd">
<svg version="1.0" xmlns="http://www.w3.org/2000/svg"
 width="512.000000pt" height="512.000000pt" viewBox="0 0 512.000000 512.000000"
 preserveAspectRatio="xMidYMid meet">
<g transform="translate(0.000000,512.000000) scale(0.100000,-0.100000)"
fill="#000000" stroke="none">
<path d="M2505 5106 c-16 -7 -40 -24 -52 -37 -17 -18 -275 -562 -358 -755
l-14 -30 99 22 c254 57 506 57 760 0 l99 -22 -14 30 c-83 192 -341 737 -358
755 -44 47 -107 62 -162 37z"/>
<path d="M776 4391 c-43 -29 -66 -70 -66 -119 0 -32 38 -146 136 -410 75 -202
141 -379 146 -394 10 -27 12 -24 91 95 113 171 303 361 474 474 120 79 122 81
95 92 -15 5 -187 70 -382 142 -386 144 -439 157 -494 120z"/>
<path d="M3985 4321 c-126 -48 -301 -113 -387 -145 l-158 -58 123 -81 c171
-112 361 -303 474 -474 l81 -122 30 82 c226 605 262 708 262 748 0 50 -23 92
-66 120 -54 35 -108 25 -359 -70z"/>
<path d="M2445 4044 c-112 -11 -251 -40 -342 -69 -528 -173 -910 -614 -1010
-1165 -23 -130 -23 -371 1 -505 111 -617 595 -1101 1211 -1211 135 -24 375
-24 510 0 617 110 1100 593 1211 1211 24 136 24 374 0 510 -110 615 -599 1106
-1205 1209 -95 16 -304 27 -376 20z m317 -244 c239 -49 507 -191 676 -358 154
-153 289 -395 354 -636 19 -68 22 -108 22 -246 0 -184 -12 -248 -78 -412 -154
-381 -383 -610 -764 -764 -139 -56 -232 -76 -378 -82 -193 -7 -339 27 -550
127 -291 139 -479 328 -618 622 -94 199 -126 330 -126 509 0 179 32 310 126
509 155 328 374 530 728 671 73 28 201 64 261 73 88 12 253 6 347 -13z"/>
<path d="M455 2864 c-209 -97 -392 -188 -408 -202 -58 -55 -58 -149 0 -204 21
-20 549 -273 759 -364 l31 -13 -19 77 c-62 258 -62 546 1 805 10 42 18 77 17
77 0 0 -172 -79 -381 -176z"/>
<path d="M4301 2963 c62 -255 63 -524 5 -783 l-22 -99 30 13 c201 87 738 343
759 364 15 14 33 43 39 64 14 49 -1 104 -39 140 -20 19 -614 305 -779 374 -8
4 -5 -22 7 -73z"/>
<path d="M992 1652 c-6 -15 -72 -192 -146 -394 -98 -263 -136 -378 -136 -410
0 -77 60 -138 138 -138 30 0 150 40 410 135 202 75 379 141 395 147 27 11 27
11 -64 70 -200 129 -382 308 -509 500 -76 115 -78 117 -88 90z"/>
<path d="M4040 1561 c-107 -166 -307 -366 -477 -478 l-123 -81 143 -52 c78
-29 255 -95 394 -146 270 -101 311 -109 368 -74 46 29 68 75 63 135 -3 31 -58
194 -146 429 -78 209 -143 380 -144 381 -2 1 -37 -50 -78 -114z"/>
<path d="M2094 806 c96 -221 344 -738 364 -759 56 -58 148 -58 204 0 20 21
268 538 363 759 l14 30 -99 -22 c-255 -57 -500 -57 -757 0 l-102 23 13 -31z"/>
</g>
</svg>
