<?xml version="1.0" encoding="UTF-8"?>
<svg version="1.1" xmlns="http://www.w3.org/2000/svg" width="517" height="601">
<path d="M0 0 C2.10053275 -0.00407173 4.20106336 -0.00941697 6.30158997 -0.01593018 C11.97051777 -0.02953212 17.63928063 -0.02433624 23.30821109 -0.01479292 C29.25243985 -0.00716631 35.19665505 -0.01424959 41.1408844 -0.01895142 C51.11282881 -0.02439726 61.08470638 -0.01724501 71.05664062 -0.00292969 C82.58289023 0.0134259 94.10898085 0.00808248 105.63522667 -0.0084089 C115.54549312 -0.02201977 125.45571172 -0.02394632 135.3659845 -0.0160929 C141.27931423 -0.01141823 147.19256917 -0.01078656 153.10589409 -0.02070236 C158.65870944 -0.02936498 164.21131933 -0.0233629 169.76411247 -0.00601959 C171.80148477 -0.00205235 173.83887436 -0.00319284 175.87623978 -0.00980759 C178.65657268 -0.01800285 181.43624658 -0.00772614 184.21653748 0.00723267 C185.02285581 0.0005405 185.82917414 -0.00615166 186.65992635 -0.01304662 C194.72308323 0.07113013 199.33892965 3.29795346 204.92193604 8.96777344 C205.48918168 9.53175024 206.05642732 10.09572704 206.64086223 10.67679405 C208.53184417 12.56051736 210.41194432 14.45473179 212.29223633 16.34912109 C213.64882833 17.70492193 215.00607377 19.06006922 216.36392212 20.41461182 C220.04398368 24.08954459 223.71465122 27.77373119 227.38356876 31.45978546 C231.2239195 35.31518083 235.07238292 39.16246176 238.91986084 43.01074219 C245.3774697 49.47204193 251.82941735 55.9389497 258.27758789 62.40966797 C266.55874897 70.71972689 274.84917357 79.02047953 283.14256668 87.31832886 C290.26942624 94.44916601 297.3920198 101.58425985 304.51393032 108.72003937 C306.80545162 111.01566112 309.09756056 113.31069489 311.38974762 115.60565186 C314.9872996 119.20809323 318.58218459 122.81317561 322.17499924 126.42034149 C323.49559818 127.74546668 324.8170439 129.06974859 326.13938522 130.39313507 C327.9404898 132.19598303 329.73849506 134.0018651 331.53570557 135.80859375 C332.06273803 136.33475973 332.58977049 136.86092571 333.13277364 137.40303612 C339.0329933 143.35037439 340.098299 147.53197762 340.10348797 155.7455368 C340.10671241 157.03633132 340.10993686 158.32712584 340.11325902 159.65703535 C340.1117879 161.0875598 340.11022018 162.51808415 340.10856628 163.9486084 C340.11043451 165.46983538 340.11273526 166.99106188 340.11543161 168.51228762 C340.12155491 172.69448068 340.12141538 176.87665377 340.12023723 181.05885029 C340.12003335 185.56894044 340.1255509 190.07902416 340.1302948 194.58911133 C340.13860566 203.42742433 340.14134987 212.26573066 340.14190718 221.10404724 C340.14238229 228.29060297 340.14443681 235.47715651 340.1476078 242.66371155 C340.15641685 263.04320382 340.16102698 283.42269081 340.16027733 303.802185 C340.1602174 305.45060391 340.1602174 305.45060391 340.16015625 307.13232422 C340.16011537 308.23261414 340.16007449 309.33290406 340.16003237 310.4665361 C340.1596262 328.28565841 340.1691878 346.10475956 340.18329462 363.92387575 C340.19766822 382.22464915 340.20456421 400.52541224 340.20370084 418.82619143 C340.20336913 429.0988126 340.2061046 439.37141162 340.21687889 449.64402771 C340.22599701 458.39371312 340.2281485 467.14336632 340.22136947 475.89305443 C340.21811042 480.35435925 340.21802523 484.81560234 340.22672272 489.27690125 C340.23461628 493.36808794 340.23312727 497.45916425 340.22443859 501.55034834 C340.22290982 503.02350303 340.22469601 504.49666607 340.23029866 505.9698109 C340.30747662 527.71867539 335.93833927 546.3647195 320.59985352 562.51318359 C316.07689785 567.01655309 311.19761717 570.40325242 305.59985352 573.45068359 C304.9535498 573.80855957 304.30724609 574.16643555 303.64135742 574.53515625 C293.15387264 579.84155248 281.42897971 580.83734284 269.85794067 580.77586365 C268.61586786 580.78124919 267.37379505 580.78663472 266.09408367 580.79218346 C262.69035321 580.8039078 259.28711998 580.80244316 255.88341069 580.79501665 C252.1954957 580.79024811 248.50763103 580.80282708 244.81973267 580.81303406 C237.61192345 580.83015572 230.40420167 580.83107594 223.19637741 580.82582115 C217.33299544 580.82176585 211.46963915 580.82323909 205.60625839 580.82856941 C204.769065 580.82931783 203.93187161 580.83006626 203.06930872 580.83083736 C201.36809389 580.83236897 199.66687907 580.83390732 197.96566425 580.83545233 C182.04259717 580.84915333 166.11957934 580.84375656 150.1965134 580.83226711 C135.65847898 580.82233695 121.12057188 580.83527592 106.5825571 580.8592013 C91.62065922 580.88363699 76.65882053 580.89318923 61.69690311 580.88654858 C53.31062483 580.88306631 44.9244444 580.88522255 36.5381813 580.90279961 C29.39942234 580.91757763 22.26083015 580.91808434 15.12207426 580.9007287 C11.48656202 580.89226215 7.85134696 580.88996128 4.21585083 580.90538025 C-19.25688744 580.99761051 -41.16387185 579.72218813 -59.02514648 562.38818359 C-75.31940114 543.88453847 -78.50087786 524.72892745 -78.40609741 501.06370544 C-78.40956144 499.15905126 -78.41433097 497.2543991 -78.42027915 495.34975106 C-78.43271633 490.15867883 -78.42665218 484.96777365 -78.41732049 479.77670109 C-78.41050034 474.16177158 -78.42102584 468.54686972 -78.42926025 462.9319458 C-78.44256798 451.94945991 -78.43973313 440.96703569 -78.43102233 429.98454743 C-78.42423487 421.05579995 -78.42333366 412.12706971 -78.42659378 403.19832039 C-78.42705348 401.92537754 -78.42751318 400.65243469 -78.42798681 399.34091781 C-78.42894603 396.75461132 -78.42991867 394.16830484 -78.43090458 391.58199836 C-78.43920634 368.04667854 -78.43061154 344.51139996 -78.41487679 320.97608708 C-78.40063973 299.51781288 -78.40191684 278.0595921 -78.41625977 256.60131836 C-78.43234335 232.45852788 -78.43862752 208.31577536 -78.42942297 184.17297798 C-78.42846737 181.59672901 -78.42752426 179.02048002 -78.42659378 176.44423103 C-78.42613095 175.17680669 -78.42566813 173.90938234 -78.42519128 172.60355119 C-78.42260533 163.68916371 -78.42696383 154.77479523 -78.43403244 145.86041069 C-78.44246168 134.99165612 -78.44013727 124.12296651 -78.42419021 113.25421935 C-78.41632695 107.71310941 -78.4131827 102.17210765 -78.42313766 96.63099861 C-78.43212529 91.55136574 -78.42708506 86.47194058 -78.41120501 81.39232636 C-78.40787439 79.56213469 -78.40951218 77.7319252 -78.41683237 75.90174513 C-78.46718715 62.2576228 -78.01924706 48.38369551 -71.40014648 36.07568359 C-71.05532227 35.4125415 -70.71049805 34.74939941 -70.35522461 34.06616211 C-67.08122742 28.02881136 -62.98434835 23.13522709 -58.02514648 18.38818359 C-57.43604492 17.76814453 -56.84694336 17.14810547 -56.23999023 16.50927734 C-52.11721763 12.45899305 -47.43070331 9.77508732 -42.33764648 7.13818359 C-41.40359985 6.64390869 -41.40359985 6.64390869 -40.45068359 6.13964844 C-27.49649582 -0.24357452 -14.07981765 -0.04606213 0 0 Z M-39.41967773 43.47021484 C-45.60366748 50.85790089 -47.33690808 60.07611931 -47.28241539 69.4890089 C-47.28592146 70.26762005 -47.28942754 71.0462312 -47.29303986 71.84843662 C-47.30231997 74.449094 -47.29743933 77.04952578 -47.29257202 79.65019226 C-47.29630999 81.53699211 -47.3009121 83.42379042 -47.30630267 85.31058627 C-47.31852997 90.48935209 -47.31827251 95.66805329 -47.31591392 100.84683025 C-47.31550568 106.43459434 -47.32654556 112.02233773 -47.33602905 117.61009216 C-47.35263872 128.55555499 -47.35813859 139.50099627 -47.35925381 150.44647064 C-47.36020433 159.34443684 -47.36431482 168.24239593 -47.37065506 177.14035988 C-47.38540199 198.26658306 -47.39770479 219.39280189 -47.39665794 240.51903057 C-47.39662679 241.1944246 -47.39659563 241.86981863 -47.39656353 242.56567915 C-47.39639732 245.9887086 -47.39619924 249.41173804 -47.39599411 252.83476748 C-47.39595422 253.51456957 -47.39591433 254.19437165 -47.39587323 254.8947738 C-47.39579236 256.26949931 -47.39570876 257.64422482 -47.39562245 259.01895033 C-47.39439725 280.40206505 -47.4094055 301.78511632 -47.43676758 323.16821289 C-47.46751059 347.20325017 -47.48467339 371.23823978 -47.48284113 395.27330238 C-47.48217734 407.99505834 -47.48766504 420.71674274 -47.50919724 433.43848228 C-47.52741361 444.27053184 -47.53175257 455.1024774 -47.51817839 465.93453564 C-47.51165103 471.45917651 -47.51152336 476.98361789 -47.52888489 482.50823975 C-47.54463065 487.57086311 -47.5417364 492.63312905 -47.52431662 497.69574378 C-47.52125006 499.52210501 -47.52486607 501.34849301 -47.53603677 503.17482265 C-47.69062265 521.93710312 -47.69062265 521.93710312 -38.77514648 537.88818359 C-30.26235618 546.48470626 -22.31269847 549.59151006 -10.31626385 549.6649946 C-9.17619045 549.66189739 -8.03611705 549.65880019 -6.86149597 549.65560913 C-5.63750495 549.66014024 -4.41351392 549.66467136 -3.15243226 549.66933978 C0.23298892 549.67979024 3.6181972 549.68131302 7.00361931 549.67895103 C10.65949715 549.67854207 14.31534356 549.68958946 17.97120667 549.69906616 C25.12914756 549.71565985 32.28705551 549.72117496 39.44501404 549.72229092 C45.26475113 549.72324213 51.08447738 549.72735605 56.90421104 549.73369217 C73.4134614 549.7512998 89.92268578 549.76053174 106.4319456 549.75903122 C107.32145922 549.75895131 108.21097283 549.7588714 109.12744141 549.75878906 C110.01804422 549.7587073 110.90864704 549.75862554 111.82623782 549.7585413 C126.25883557 549.75772844 140.69132895 549.77686731 155.12389652 549.8050658 C169.95219657 549.8338083 184.78044575 549.84760535 199.60877436 549.84587824 C207.93013874 549.84521483 216.25139368 549.85068564 224.57273293 549.87223434 C231.65766036 549.89046409 238.74242873 549.89477877 245.82736949 549.8812155 C249.4398187 549.87469495 253.05196292 549.87453519 256.66438293 549.891922 C260.5864797 549.91060462 264.50813349 549.89807433 268.43025208 549.88265991 C270.13032393 549.8980906 270.13032393 549.8980906 271.86474067 549.91383302 C282.1102314 549.82498449 291.2385142 546.92280548 298.75219727 539.67333984 C305.97147195 531.96565757 309.10163371 523.78154401 309.09790134 513.26001263 C309.09989239 512.02041875 309.10188344 510.78082487 309.10393482 509.50366753 C309.10108197 508.13100013 309.09813638 506.75833292 309.09510803 505.38566589 C309.09554412 503.9252959 309.09641971 502.46492598 309.0976972 501.00455648 C309.09993484 496.99108767 309.09593084 492.97764552 309.09091914 488.96418011 C309.08660437 484.63634754 309.08806179 480.30851649 309.08882141 475.98068237 C309.08934599 468.48224214 309.08620604 460.98381059 309.08058357 453.48537254 C309.0724597 442.64386331 309.06985244 431.80235829 309.06859558 420.96084634 C309.06640646 403.37160026 309.05975016 385.7823588 309.05029297 368.19311523 C309.04111524 351.10587589 309.03403617 334.0186378 309.02978516 316.93139648 C309.02952243 315.87830066 309.02925971 314.82520484 309.02898902 313.74019703 C309.027684 308.45717305 309.02642029 303.17414907 309.02517712 297.89112508 C309.01480887 254.05680804 308.99719434 210.22249606 308.97485352 166.38818359 C308.02066528 166.38453796 307.06647705 166.38089233 306.08337402 166.37713623 C297.02301574 166.33994679 287.96298985 166.28191751 278.90288544 166.20428085 C274.24668617 166.16502979 269.59066971 166.13273301 264.93432617 166.1171875 C260.42773023 166.10187173 255.92163763 166.06716833 251.41526794 166.01987457 C249.70922764 166.0052127 248.00311542 165.99715148 246.29701233 165.99629974 C226.03525156 165.97604062 208.20359919 162.08455241 193.11547852 147.55615234 C192.40907227 146.84072266 191.70266602 146.12529297 190.97485352 145.38818359 C190.41282227 144.84806641 189.85079102 144.30794922 189.27172852 143.75146484 C174.5128593 128.33233042 173.87647792 106.6431779 173.65844727 86.66162109 C173.63783465 85.06165076 173.61683719 83.46168534 173.59547424 81.86172485 C173.54069773 77.6828819 173.49109562 73.50399349 173.44262695 69.32507324 C173.3920842 65.04789257 173.33657051 60.77077661 173.28149414 56.49365234 C173.17445727 48.12521773 173.07289508 39.75672841 172.97485352 31.38818359 C148.24427467 31.31805102 123.51371076 31.26517456 98.78305244 31.23274708 C87.29975176 31.21728913 75.81651293 31.19622005 64.33325195 31.16186523 C54.32251184 31.13193012 44.31181653 31.1126008 34.3010329 31.10591811 C29.00215728 31.10201284 23.70340983 31.09285712 18.40457535 31.07099342 C13.41253805 31.05056336 8.42068117 31.04436297 3.42860603 31.04886055 C1.60093135 31.04803826 -0.22674964 31.04211161 -2.05438805 31.03056717 C-17.14710761 30.93994489 -28.46306082 32.12660925 -39.41967773 43.47021484 Z M203.97485352 53.38818359 C203.92385768 60.32581417 203.88899638 67.26339583 203.86499023 74.20117188 C203.85497509 76.55796108 203.8413591 78.914738 203.82397461 81.27148438 C203.79952832 84.67239428 203.78832521 88.0731389 203.77954102 91.47412109 C203.76921844 92.5161972 203.75889587 93.55827332 203.7482605 94.63192749 C203.74649237 106.33986209 205.49611669 117.68029172 213.97485352 126.38818359 C223.64494265 133.89447061 231.72231923 135.84195323 243.78735352 135.68115234 C244.99681641 135.6769075 246.2062793 135.67266266 247.45239258 135.66828918 C251.29344485 135.65157398 255.13396135 135.61393374 258.97485352 135.57568359 C261.58812716 135.56062756 264.20140907 135.54694077 266.81469727 135.53466797 C273.20159704 135.50169381 279.58818698 135.45156543 285.97485352 135.38818359 C281.67381115 130.25025993 277.1684135 125.43818996 272.42480469 120.70874023 C271.69401703 119.97620026 270.96322937 119.24366028 270.21029663 118.48892212 C267.81529963 116.08955454 265.41670043 113.69382658 263.01782227 111.29833984 C261.34712854 109.62697214 259.67658325 107.95545604 258.00617981 106.28379822 C254.51697309 102.79312141 251.02597417 99.30424965 247.53369141 95.81665039 C243.04648832 91.33517077 238.56382485 86.84918129 234.08246899 82.36185551 C230.64005031 78.91583523 227.19526828 75.47218546 223.74975014 72.02926445 C222.09471438 70.37489771 220.44042645 68.7197825 218.78688622 67.06392097 C216.48630338 64.76081535 214.18256868 62.46091099 211.87792969 60.16186523 C211.18964584 59.47155716 210.501362 58.78124908 209.79222107 58.07002258 C209.16845581 57.44907715 208.54469055 56.82813171 207.90202332 56.18836975 C207.35766223 55.64438569 206.81330114 55.10040163 206.25244427 54.5399332 C205.13774797 53.27658684 205.13774797 53.27658684 203.97485352 53.38818359 Z " fill="#000000" transform="translate(131.025146484375,9.61181640625)"/>
<path d="M0 0 C0.91163448 -0.00367669 1.82326895 -0.00735338 2.76252872 -0.01114148 C5.8301202 -0.02219148 8.89767783 -0.0260244 11.96528625 -0.02983093 C14.15961821 -0.03609459 16.35394909 -0.0427413 18.54827881 -0.04974365 C24.51951857 -0.06716246 30.49075032 -0.07770785 36.46200919 -0.08594918 C40.19169298 -0.09109755 43.92137427 -0.09717336 47.65105629 -0.10346031 C58.64816678 -0.12142167 69.64527268 -0.13580001 80.64239525 -0.14363671 C82.65464799 -0.14507519 84.66690072 -0.14652657 86.67915344 -0.147995 C87.34525616 -0.14847874 88.01135888 -0.14896248 88.69764654 -0.14946087 C99.48473709 -0.15775873 110.27171665 -0.18309165 121.05875876 -0.21557567 C132.13753242 -0.24866576 143.2162599 -0.26632696 154.2950843 -0.26985329 C160.51384087 -0.27220518 166.73242204 -0.28118393 172.95113182 -0.30631447 C178.80259302 -0.32957853 184.65376312 -0.33383494 190.50525856 -0.32355309 C192.65144951 -0.32305721 194.79765471 -0.32939273 196.94380188 -0.34310913 C199.8773527 -0.36080696 202.80985648 -0.35373188 205.7434082 -0.34057617 C206.58963153 -0.35154542 207.43585486 -0.36251466 208.30772132 -0.37381631 C213.98707278 -0.31246633 218.49176333 0.84291648 223.18916321 4.14717102 C226.82799654 8.29173672 227.86238498 12.46963406 227.56416321 17.94013977 C226.92622624 21.69466466 225.69681802 24.2914014 223.18916321 27.14717102 C217.6429975 31.04332508 212.39892925 31.72521161 205.77705383 31.65510559 C204.40319393 31.66446553 204.40319393 31.66446553 203.00157928 31.67401457 C199.9492578 31.6898998 196.89773985 31.67735769 193.84541321 31.66474915 C191.65034013 31.67017224 189.45527069 31.67729594 187.26020813 31.68598938 C181.30983024 31.70420322 175.3597302 31.69716303 169.40934753 31.68447304 C163.1777421 31.67433543 156.94616022 31.68374084 150.71455383 31.6900177 C139.58034259 31.69775759 128.44624049 31.68533864 117.31205082 31.66498035 C107.22675494 31.64711049 97.14164326 31.65021496 87.05635071 31.6686554 C75.33083391 31.69008501 63.60542453 31.69801702 51.87989044 31.68620634 C45.67800475 31.67997503 39.4762458 31.67912595 33.27436829 31.69235229 C27.44331758 31.70391949 21.6126142 31.69586871 15.78160095 31.67277527 C13.64348426 31.66749289 11.50533826 31.66899385 9.36723328 31.67782593 C6.44485373 31.68878336 3.52358187 31.67501494 0.60127258 31.65510559 C-0.24154015 31.66402848 -1.08435287 31.67295136 -1.95270538 31.68214464 C-7.68550031 31.60657206 -11.99709091 30.31547778 -16.81083679 27.14717102 C-20.6986647 23.00851551 -21.1105142 18.89479917 -21.02177429 13.42842102 C-20.70943227 10.05049989 -19.74638058 7.92145046 -17.81083679 5.14717102 C-11.85095013 0.55309171 -7.31709849 -0.0015734 0 0 Z " fill="#000000" transform="translate(158.8108367919922,368.8528289794922)"/>
<path d="M0 0 C0.92121271 -0.00297112 1.84242543 -0.00594224 2.79155368 -0.0090034 C5.89145565 -0.01770432 8.99131907 -0.01919982 12.0912323 -0.02069092 C14.30851321 -0.02531809 16.52579333 -0.03034261 18.74307251 -0.03573608 C24.77616287 -0.04887142 30.80924209 -0.0553072 36.84234452 -0.05974674 C40.609535 -0.06267551 44.37672242 -0.06677993 48.14391136 -0.07125092 C58.57444638 -0.0833609 69.00497923 -0.09374269 79.43552113 -0.09712601 C80.10308653 -0.09734557 80.77065194 -0.09756514 81.4584466 -0.09779136 C82.46218839 -0.09811878 82.46218839 -0.09811878 83.48620778 -0.09845281 C84.8421795 -0.09889627 86.19815121 -0.09934284 87.55412292 -0.09979248 C88.56303578 -0.10012463 88.56303578 -0.10012463 89.59233072 -0.10046348 C100.4906811 -0.10441139 111.38896462 -0.12186529 122.28728918 -0.145152 C133.47679484 -0.16886787 144.66627611 -0.18106999 155.85580939 -0.18249393 C162.1381835 -0.18354325 168.4204633 -0.18947823 174.7028141 -0.20731354 C180.61168802 -0.22376194 186.52039643 -0.22596539 192.42928505 -0.21717453 C194.59888654 -0.21640244 196.76849681 -0.22076946 198.93807602 -0.23063278 C201.89845019 -0.24330268 204.85823375 -0.23750229 207.81860352 -0.22705078 C209.10834988 -0.23913539 209.10834988 -0.23913539 210.42415172 -0.25146413 C215.39490615 -0.21038209 218.78918324 0.39506077 223.09977722 3.14044189 C227.44988035 7.84325608 228.46212273 11.61483785 228.38102722 17.85919189 C227.79754511 22.5918801 224.96759656 25.33770901 221.59977722 28.45294189 C216.79927689 31.69327962 211.87068169 31.28664367 206.23788452 31.28088379 C205.33285716 31.28385491 204.4278298 31.28682603 203.49537736 31.28988719 C200.45619339 31.29857384 197.41704881 31.30008241 194.37785339 31.30157471 C192.20145585 31.30620287 190.02505912 31.31122753 187.84866333 31.31661987 C181.93126384 31.32974528 176.01387569 31.33618901 170.09646392 31.34063053 C166.40045185 31.34356079 162.70444289 31.34766549 159.00843239 31.3521347 C147.4471161 31.36580947 135.88580691 31.37547646 124.3244831 31.3793366 C122.34914846 31.37999973 122.34914846 31.37999973 120.33390808 31.38067627 C119.67408978 31.3808977 119.01427148 31.38111913 118.33445869 31.38134727 C106.98015709 31.3855401 95.62593824 31.40570514 84.27166384 31.43033719 C73.95478422 31.45194278 63.6379334 31.46204026 53.32103139 31.46337771 C47.15768808 31.46442646 40.99444096 31.47034934 34.83112144 31.48819733 C29.03385572 31.50465871 23.23675867 31.50684283 17.43947792 31.49805832 C15.31222202 31.49728694 13.18495713 31.50164396 11.057724 31.51151657 C8.15248825 31.5242088 5.2478524 31.5183739 2.34262085 31.50793457 C1.08161262 31.52001918 1.08161262 31.52001918 -0.20487052 31.53234792 C-6.06589389 31.48313283 -11.08180986 30.62393131 -15.64241028 26.60528564 C-19.71431472 21.11523518 -20.52766968 17.90546032 -19.90022278 11.14044189 C-18.2085822 6.42165501 -16.0397366 3.93461372 -11.90022278 1.14044189 C-7.93262413 -0.18209099 -4.13649097 -0.0041363 0 0 Z " fill="#000000" transform="translate(157.9002227783203,288.85955810546875)"/>
<path d="M0 0 C0.93194309 -0.00623996 1.86388618 -0.01247993 2.82406998 -0.01890898 C5.94254204 -0.03484615 9.06023326 -0.02223162 12.17871094 -0.00964355 C14.41614233 -0.01506433 16.65357015 -0.02218674 18.89099121 -0.03088379 C24.96531417 -0.04912513 31.0393655 -0.04204608 37.11369324 -0.02936745 C43.46903213 -0.01924409 49.82434769 -0.02863129 56.1796875 -0.03491211 C67.53632486 -0.0426567 78.89282423 -0.03022197 90.24943399 -0.00987476 C100.54232713 0.00799583 110.83503981 0.00489158 121.12792969 -0.0135498 C133.08633545 -0.03496526 145.04463161 -0.04291897 157.0030632 -0.03110075 C163.33122846 -0.02486293 169.65926947 -0.02403826 175.98742676 -0.0372467 C181.93663412 -0.04879668 187.88550051 -0.04079462 193.83467102 -0.01766968 C196.01877781 -0.01237809 198.20291326 -0.013904 200.38700867 -0.02272034 C203.36711786 -0.03364128 206.34613253 -0.01995329 209.32617188 0 C210.62452154 -0.01338433 210.62452154 -0.01338433 211.94910049 -0.02703905 C217.33334676 0.04294948 220.37588359 0.95381155 224.66308594 4.50793457 C228.20889629 8.54282222 228.96668772 12.07454866 228.87792969 17.44934082 C228.40115619 22.01769774 226.43745708 24.80911183 223.10058594 27.82043457 C218.66902161 30.88844065 215.05916118 30.65620938 209.80718994 30.65510559 C208.87866455 30.65878228 207.95013916 30.66245897 206.99347663 30.66624707 C203.86283309 30.67731468 200.73222271 30.68113295 197.6015625 30.68493652 C195.36472467 30.69119883 193.12788788 30.69784542 190.89105225 30.70484924 C184.8000566 30.72228022 178.70906881 30.73281664 172.61805439 30.74105477 C168.81518987 30.74620029 165.01232781 30.75227621 161.20946503 30.7585659 C150.68203691 30.77543845 140.15460993 30.79007345 129.62717056 30.79731464 C126.89467619 30.79922457 124.16218184 30.80114489 121.4296875 30.80310059 C120.7505322 30.80358433 120.0713769 30.80406807 119.37164113 30.80456647 C108.36974157 30.81286677 97.36795075 30.83820315 86.36609867 30.87068126 C75.07266297 30.90374851 63.77928048 30.92143031 52.48579001 30.92495888 C46.14412288 30.92731302 39.80262754 30.93632082 33.46100616 30.96142006 C27.4954782 30.98464876 21.53023579 30.98895485 15.56467438 30.97865868 C13.37410535 30.97816195 11.18352251 30.98452258 8.99299622 30.99821472 C6.00395842 31.01585384 3.01595424 31.00886646 0.0269165 30.99568176 C-0.84137842 31.00665101 -1.70967334 31.01762025 -2.60428023 31.0289219 C-7.99935642 30.97140791 -11.04222392 30.07277767 -15.33691406 26.50793457 C-19.08667997 22.24095957 -19.69495469 18.31243729 -19.61425781 12.78918457 C-19.03244842 8.00359748 -16.3404401 5.34374558 -12.77203369 2.37171173 C-8.3214898 -0.04299953 -4.97865203 -0.05132356 0 0 Z " fill="#000000" transform="translate(157.3369140625,449.4920654296875)"/>
<path d="M0 0 C1.72786995 -0.01051392 1.72786995 -0.01051392 3.49064636 -0.02124023 C7.29283863 -0.03882445 11.09428473 -0.02719503 14.89648438 -0.01367188 C17.54154605 -0.01636664 20.18660676 -0.02024893 22.83166504 -0.02526855 C28.3730475 -0.03253626 33.9142164 -0.02298053 39.45556641 -0.00390625 C45.85298163 0.0178611 52.24988688 0.01080909 58.64728975 -0.01121187 C64.81324278 -0.03158286 70.97897053 -0.02938633 77.14494324 -0.01768494 C79.76360648 -0.01501706 82.38228275 -0.01828949 85.00093079 -0.02760315 C88.66112722 -0.03776439 92.32034517 -0.02227149 95.98046875 0 C97.60307869 -0.01214539 97.60307869 -0.01214539 99.25846863 -0.02453613 C105.33675412 0.04396365 108.83814418 0.50407989 113.49023438 4.51757812 C114.08835937 5.03320312 114.68648437 5.54882812 115.30273438 6.08007812 C118.56460782 10.02866177 117.9144702 15.70442983 117.49023438 20.51757812 C115.53900108 25.24161664 112.0408122 28.24228921 107.49023438 30.51757812 C105.92009923 30.61851928 104.34575729 30.65700213 102.7723999 30.66474915 C101.7770372 30.67190445 100.7816745 30.67905975 99.75614929 30.68643188 C98.66002823 30.68912079 97.56390717 30.69180969 96.43457031 30.69458008 C94.70757652 30.70443687 94.70757652 30.70443687 92.94569397 30.7144928 C89.1219985 30.73426114 85.29834237 30.74589625 81.47460938 30.75585938 C79.51928158 30.76197267 79.51928158 30.76197267 77.52445221 30.76820946 C71.33720051 30.78726357 65.14996075 30.80149307 58.96268535 30.80982143 C51.82384143 30.81958948 44.68530795 30.84589633 37.5465734 30.88632232 C32.02716173 30.9165038 26.50783892 30.93129228 20.98834634 30.93460244 C17.69267123 30.93695105 14.39740317 30.94786285 11.10179901 30.97106361 C7.42210571 30.99535808 3.74322517 30.99450717 0.06347656 30.98754883 C-1.02454758 31.00035889 -2.11257172 31.01316895 -3.23356628 31.02636719 C-9.31961249 30.98438564 -12.87810819 30.58640939 -17.50976562 26.51757812 C-21.25953154 22.25060312 -21.86780625 18.32208084 -21.78710938 12.79882812 C-21.21163818 8.06537491 -18.52998872 5.41454798 -15.08068848 2.38195801 C-10.47285067 -0.57281957 -5.29530701 -0.03963586 0 0 Z " fill="#000000" transform="translate(159.509765625,208.482421875)"/>
</svg>
