<?xml version="1.0" encoding="UTF-8"?>
<svg version="1.1" xmlns="http://www.w3.org/2000/svg" width="512" height="512">
<path d="M0 0 C70.5580603 -2.00449035 142.56469045 20.16443629 195.90625 67.06640625 C196.8034375 67.85144531 197.700625 68.63648437 198.625 69.4453125 C227.5440377 95.10649564 249.13719792 128.50329922 258.90625 166.06640625 C259.22384277 167.2869873 259.22384277 167.2869873 259.54785156 168.53222656 C270.30371581 212.35683349 261.4258304 260.58966589 238.5859375 299.0625 C225.21767505 320.7287043 207.95886972 340.39245314 187.90625 356.06640625 C186.96910156 356.83210938 186.03195312 357.5978125 185.06640625 358.38671875 C175.27987436 366.22098237 164.70100043 372.71789681 153.90625 379.06640625 C153.18985352 379.48809082 152.47345703 379.90977539 151.73535156 380.34423828 C111.1089894 403.87671787 62.53607396 414.81515874 15.90625 416.06640625 C15.16761719 416.08832031 14.42898438 416.11023438 13.66796875 416.1328125 C11.30974812 416.19307367 8.95258615 416.22686656 6.59375 416.25390625 C5.82226309 416.2638776 5.05077618 416.27384895 4.25591087 416.28412247 C-0.73442293 416.27549873 -5.48880596 415.91425161 -10.42074585 415.13763428 C-30.40197084 412.26742917 -44.06357754 417.24816589 -61.25539827 426.45776463 C-64.68092164 428.27412526 -68.14570025 430.01260714 -71.60629272 431.76092529 C-78.13800993 435.07500864 -84.63308563 438.45490791 -91.116979 441.86143565 C-98.43706448 445.70302513 -105.79595962 449.46719855 -113.15881276 453.22598505 C-124.68033068 459.11005687 -136.17905305 465.03654854 -147.64697266 471.02441406 C-148.24037484 471.33409323 -148.83377703 471.6437724 -149.4451611 471.96283579 C-155.27250935 475.00504804 -161.09258095 478.05990179 -166.89324951 481.15270996 C-167.76934057 481.61859905 -168.64543163 482.08448814 -169.54807091 482.56449509 C-171.12785652 483.40605557 -172.70559223 484.25148305 -174.28061867 485.10191727 C-181.26655287 488.82380906 -187.19800058 491.2698712 -195.09375 489.06640625 C-198.89770746 486.90194638 -201.43903161 484.12245008 -203.09375 480.06640625 C-203.85578242 474.07354569 -202.74077919 468.41897507 -201.18530273 462.65454102 C-200.98196823 461.86593689 -200.77863373 461.07733276 -200.56913757 460.26483154 C-199.8989298 457.67632629 -199.21330487 455.09218341 -198.52734375 452.5078125 C-198.04994163 450.67748231 -197.5734836 448.84690564 -197.09791565 447.01609802 C-195.84281333 442.19519537 -194.57446426 437.37787366 -193.30340576 432.56115723 C-192.03698542 427.75194323 -190.7839339 422.93925162 -189.52929688 418.12695312 C-181.80726327 388.55561503 -181.80726327 388.55561503 -178.78173828 377.72216797 C-178.44465347 376.5068187 -178.10756866 375.29146942 -177.76026917 374.03929138 C-177.15432139 371.86742261 -176.53916888 369.69808907 -175.91246033 367.53211975 C-175.65267899 366.60104904 -175.39289764 365.66997833 -175.12524414 364.71069336 C-174.89954239 363.92488388 -174.67384064 363.1390744 -174.44129944 362.32945251 C-174.02505734 359.61911833 -174.32305481 357.69000266 -175.09375 355.06640625 C-177.09301558 352.76280745 -177.09301558 352.76280745 -179.65625 350.69140625 C-180.56890625 349.90378906 -181.4815625 349.11617188 -182.421875 348.3046875 C-183.97103856 347.00692329 -185.52210545 345.71141089 -187.078125 344.421875 C-215.76022243 320.21369448 -235.99507945 285.20854245 -245.09375 249.06640625 C-245.40916748 247.8753125 -245.40916748 247.8753125 -245.73095703 246.66015625 C-256.67781726 203.94746647 -247.41150649 156.80373809 -225.91699219 118.99658203 C-212.82330382 96.94081747 -195.28026712 76.84582929 -175.09375 61.06640625 C-173.83714401 60.05741068 -172.58064006 59.04828803 -171.32421875 58.0390625 C-160.80441364 49.69078831 -149.75348322 42.70628858 -138.09375 36.06640625 C-136.87627187 35.35291613 -135.65882106 34.6393794 -134.44140625 33.92578125 C-93.83507698 11.04111459 -46.1741885 1.46447986 0 0 Z M-168.09375 94.06640625 C-168.61404785 94.55415527 -169.1343457 95.0419043 -169.67041016 95.54443359 C-183.83464511 108.8997506 -195.28803372 123.68670307 -204.09375 141.06640625 C-204.41569336 141.69788574 -204.73763672 142.32936523 -205.06933594 142.97998047 C-221.89277441 176.39439435 -225.57324905 215.84911361 -214.12451172 251.58862305 C-202.86302419 284.55775701 -180.95775182 314.50530271 -152.90161133 335.23803711 C-143.57370546 342.22752365 -143.57370546 342.22752365 -142.71278381 347.31977844 C-142.46659063 357.7082402 -145.3984614 367.24158625 -148.125 377.1640625 C-148.64207721 379.08990782 -149.15771907 381.01613905 -149.67199707 382.94273376 C-151.02032286 387.98050682 -152.38577607 393.01346691 -153.75567627 398.04541016 C-155.95262566 406.12857112 -158.1213757 414.21936051 -160.29356384 422.30920219 C-161.0535015 425.13065341 -161.81965568 427.95035576 -162.58703613 430.76979065 C-163.05223535 432.48981854 -163.51736763 434.20986454 -163.98242188 435.92993164 C-164.19748886 436.71380753 -164.41255585 437.49768341 -164.63414001 438.30531311 C-165.44382533 441.31273375 -166.09375 443.93659903 -166.09375 447.06640625 C-162.06731768 445.79995575 -158.34610938 444.31695438 -154.57348633 442.42773438 C-152.98441216 441.63550476 -152.98441216 441.63550476 -151.36323547 440.82727051 C-150.22887558 440.2564978 -149.09451569 439.6857251 -147.92578125 439.09765625 C-146.72448651 438.4964109 -145.52304204 437.8954646 -144.32145691 437.2947998 C-141.79940053 436.03299075 -139.27870477 434.76851745 -136.7590332 433.50195312 C-133.58989603 431.90901278 -130.41823253 430.32118839 -127.24563217 428.73515892 C-113.90989011 422.06701566 -100.6310924 415.30616035 -87.45895386 408.31921387 C-80.18921611 404.46855939 -72.8989874 400.66042828 -65.57568359 396.91259766 C-63.65525848 395.9236657 -61.73992818 394.92478287 -59.82958984 393.91650391 C-39.86615216 383.39500403 -39.86615216 383.39500403 -28.09375 385.06640625 C-25.78183823 385.22128543 -23.46928339 385.36679262 -21.15625 385.50390625 C-17.62156893 385.77821631 -14.08822591 386.06685745 -10.5546875 386.35546875 C53.86047261 391.35442796 123.22773314 372.39733483 172.96875 330.31640625 C185.13876809 319.7374468 196.77614805 308.4130673 205.90625 295.06640625 C206.51992432 294.17066895 206.51992432 294.17066895 207.14599609 293.25683594 C217.07895963 278.53088385 225.34414863 262.28667392 229.90625 245.06640625 C230.10089844 244.34952637 230.29554688 243.63264648 230.49609375 242.89404297 C236.45186275 219.97114449 236.15621978 193.88168945 229.90625 171.06640625 C229.60074219 169.92872803 229.60074219 169.92872803 229.2890625 168.76806641 C222.04760152 142.72450958 207.25479495 120.60677512 188.90625 101.06640625 C188.41415039 100.54030762 187.92205078 100.01420898 187.41503906 99.47216797 C161.60095536 72.1010192 127.66106568 53.18055378 91.90625 42.06640625 C91.09865234 41.80666016 90.29105469 41.54691406 89.45898438 41.27929688 C3.34842269 13.75382136 -101.57649894 30.92970308 -168.09375 94.06640625 Z " fill="#000000" transform="translate(249.09375,10.93359375)"/>
</svg>
