<svg xmlns="http://www.w3.org/2000/svg" viewBox="0 0 768 928" role="img" aria-hidden="true">
  <rect width="768" height="928" fill="#000000"/>

  <g fill="none" stroke="#ffffff" stroke-linecap="round" stroke-linejoin="round">
    <path d="M34 6h49c75 0 130 13 164 39 26 20 39 49 39 86 0 39-14 69-42 92-36 29-90 43-163 43H34" stroke-width="28"/>
    <path d="M18 6v456" stroke-width="32"/>
    <path d="M134 250l161 244" stroke-width="15"/>

    <path d="M458 307c-9-44-34-66-77-66-27 0-49 8-66 25-16 16-25 35-25 58 0 24 10 48 31 72 8 9 37 38 88 87 42 40 68 68 78 84 11 17 17 36 17 56 0 34-12 63-36 87-25 25-55 37-92 37-42 0-75-15-98-44-19-24-30-56-32-95" stroke-width="8"/>
    <circle cx="341" cy="523" r="101" stroke-width="8"/>

    <path d="M407 898l177-463 179 463" stroke-width="18"/>
    <path d="M479 744h205" stroke-width="8"/>
  </g>
</svg>
